<svg>
	<g transform="translate(0,0)">
<text x="0" y="-1" style="font-size:1.5;fill:black;font-family:Sans;">A</text>
<g transform="translate( 0, 0 )">
<rect x="0" y="0" width="1" height="1" fill="black" opacity="0.903634" stroke="black" stroke-width="0.1" />
<rect x="0" y="1" width="1" height="1" fill="black" opacity="0.890145" stroke="black" stroke-width="0.1" />
<rect x="0" y="2" width="1" height="1" fill="black" opacity="0.842912" stroke="black" stroke-width="0.1" />
<rect x="0" y="3" width="1" height="1" fill="black" opacity="0.842912" stroke="black" stroke-width="0.1" />
<rect x="0" y="4" width="1" height="1" fill="black" opacity="0.726376" stroke="black" stroke-width="0.1" />
<rect x="0" y="5" width="1" height="1" fill="black" opacity="0.726376" stroke="black" stroke-width="0.1" />
<rect x="0" y="6" width="1" height="1" fill="black" opacity="0.5" stroke="black" stroke-width="0.1" />
<rect x="1" y="0" width="1" height="1" fill="black" opacity="0.890145" stroke="black" stroke-width="0.1" />
<rect x="1" y="1" width="1" height="1" fill="black" opacity="0.899266" stroke="black" stroke-width="0.1" />
<rect x="1" y="2" width="1" height="1" fill="black" opacity="0.879138" stroke="black" stroke-width="0.1" />
<rect x="1" y="3" width="1" height="1" fill="black" opacity="0.879138" stroke="black" stroke-width="0.1" />
<rect x="1" y="4" width="1" height="1" fill="black" opacity="0.802737" stroke="black" stroke-width="0.1" />
<rect x="1" y="5" width="1" height="1" fill="black" opacity="0.802737" stroke="black" stroke-width="0.1" />
<rect x="1" y="6" width="1" height="1" fill="black" opacity="0.633764" stroke="black" stroke-width="0.1" />
<rect x="2" y="0" width="1" height="1" fill="black" opacity="0.842911" stroke="black" stroke-width="0.1" />
<rect x="2" y="1" width="1" height="1" fill="black" opacity="0.879138" stroke="black" stroke-width="0.1" />
<rect x="2" y="2" width="1" height="1" fill="black" opacity="0.893839" stroke="black" stroke-width="0.1" />
<rect x="2" y="3" width="1" height="1" fill="black" opacity="0.893839" stroke="black" stroke-width="0.1" />
<rect x="2" y="4" width="1" height="1" fill="black" opacity="0.86205" stroke="black" stroke-width="0.1" />
<rect x="2" y="5" width="1" height="1" fill="black" opacity="0.86205" stroke="black" stroke-width="0.1" />
<rect x="2" y="6" width="1" height="1" fill="black" opacity="0.762884" stroke="black" stroke-width="0.1" />
<rect x="3" y="0" width="1" height="1" fill="black" opacity="0.842911" stroke="black" stroke-width="0.1" />
<rect x="3" y="1" width="1" height="1" fill="black" opacity="0.879138" stroke="black" stroke-width="0.1" />
<rect x="3" y="2" width="1" height="1" fill="black" opacity="0.893839" stroke="black" stroke-width="0.1" />
<rect x="3" y="3" width="1" height="1" fill="black" opacity="0.893839" stroke="black" stroke-width="0.1" />
<rect x="3" y="4" width="1" height="1" fill="black" opacity="0.86205" stroke="black" stroke-width="0.1" />
<rect x="3" y="5" width="1" height="1" fill="black" opacity="0.86205" stroke="black" stroke-width="0.1" />
<rect x="3" y="6" width="1" height="1" fill="black" opacity="0.762884" stroke="black" stroke-width="0.1" />
<rect x="4" y="0" width="1" height="1" fill="black" opacity="0.726375" stroke="black" stroke-width="0.1" />
<rect x="4" y="1" width="1" height="1" fill="black" opacity="0.802737" stroke="black" stroke-width="0.1" />
<rect x="4" y="2" width="1" height="1" fill="black" opacity="0.86205" stroke="black" stroke-width="0.1" />
<rect x="4" y="3" width="1" height="1" fill="black" opacity="0.86205" stroke="black" stroke-width="0.1" />
<rect x="4" y="4" width="1" height="1" fill="black" opacity="0.886969" stroke="black" stroke-width="0.1" />
<rect x="4" y="5" width="1" height="1" fill="black" opacity="0.886969" stroke="black" stroke-width="0.1" />
<rect x="4" y="6" width="1" height="1" fill="black" opacity="0.863248" stroke="black" stroke-width="0.1" />
<rect x="5" y="0" width="1" height="1" fill="black" opacity="0.726375" stroke="black" stroke-width="0.1" />
<rect x="5" y="1" width="1" height="1" fill="black" opacity="0.802737" stroke="black" stroke-width="0.1" />
<rect x="5" y="2" width="1" height="1" fill="black" opacity="0.86205" stroke="black" stroke-width="0.1" />
<rect x="5" y="3" width="1" height="1" fill="black" opacity="0.86205" stroke="black" stroke-width="0.1" />
<rect x="5" y="4" width="1" height="1" fill="black" opacity="0.886969" stroke="black" stroke-width="0.1" />
<rect x="5" y="5" width="1" height="1" fill="black" opacity="0.886969" stroke="black" stroke-width="0.1" />
<rect x="5" y="6" width="1" height="1" fill="black" opacity="0.863248" stroke="black" stroke-width="0.1" />
<rect x="6" y="0" width="1" height="1" fill="black" opacity="0.5" stroke="black" stroke-width="0.1" />
<rect x="6" y="1" width="1" height="1" fill="black" opacity="0.633764" stroke="black" stroke-width="0.1" />
<rect x="6" y="2" width="1" height="1" fill="black" opacity="0.762884" stroke="black" stroke-width="0.1" />
<rect x="6" y="3" width="1" height="1" fill="black" opacity="0.762884" stroke="black" stroke-width="0.1" />
<rect x="6" y="4" width="1" height="1" fill="black" opacity="0.863248" stroke="black" stroke-width="0.1" />
<rect x="6" y="5" width="1" height="1" fill="black" opacity="0.863248" stroke="black" stroke-width="0.1" />
<rect x="6" y="6" width="1" height="1" fill="black" opacity="0.909666" stroke="black" stroke-width="0.1" />
<rect x="0" y="0" width="7" height="7" fill="none" stroke="black" stroke-width="0.1" />
<rect x="0" y="9" width="0.75" height="0.75" fill="black" opacity="0.5" stroke="black" stroke-width="0.1" />
<rect x="0.75" y="9" width="0.75" height="0.75" fill="black" opacity="0.617996" stroke="black" stroke-width="0.1" />
<rect x="1.5" y="9" width="0.75" height="0.75" fill="black" opacity="0.728401" stroke="black" stroke-width="0.1" />
<rect x="2.25" y="9" width="0.75" height="0.75" fill="black" opacity="0.826197" stroke="black" stroke-width="0.1" />
<rect x="3" y="9" width="0.75" height="0.75" fill="black" opacity="0.909666" stroke="black" stroke-width="0.1" />
<text x="0" y="8.8" style="font-size:0.5;fill:black;font-family:Sans;text-anchor:middle;">.995</text>
<text x="3.75" y="8.8" style="font-size:0.5;fill:black;font-family:Sans;text-anchor:middle;">.998</text>
</g>
<g transform="translate( 10, 0 )">
<g transform="matrix( 0.5,0,0.0.25,0,0 )">
<path d="M 0,0 2.15338,3.41859 3.41303,5.0992 4.30677,6.23576 5,7.09748 5.56641,7.66872 6.04531,7.79142 6.46015,7.91412 6.82606,8.03682 7.15338,8.15951 7.44948,8.28221 7.7198,8.40491 7.96846,8.52761 8.19869,8.65031 8.41303,8.77301 8.61353,8.89571 8.80187,9.01841 8.97944,9.14111 9.14741,9.26381 9.30677,9.3865 9.45834,9.5092 9.60286,9.6319 9.74096,9.7546 9.87318,9.8773 10,10" fill="none" stroke="black" stroke-width="0.15" />
</g>
<g transform="matrix( 0.5,0,0.0.25,0,1.25 )">
<path d="M 0,0 2.15338,3.53307 3.41303,5.26996 4.30677,6.44458 5,7.33516 5.56641,7.63081 6.04531,7.7555 6.46015,7.88019 6.82606,8.00489 7.15338,8.12958 7.44948,8.25428 7.7198,8.37897 7.96846,8.50367 8.19869,8.62836 8.41303,8.75306 8.61353,8.87775 8.80187,9.00244 8.97944,9.12714 9.14741,9.25183 9.30677,9.37653 9.45834,9.50122 9.60286,9.62592 9.74096,9.75061 9.87318,9.87531 10,10" fill="none" stroke="black" stroke-width="0.15" />
</g>
<g transform="matrix( 0.5,0,0.0.25,0,2.5 )">
<path d="M 0,0 2.15338,3.67003 3.41303,5.47425 4.30677,6.6944 5,7.45191 5.56641,7.57931 6.04531,7.70671 6.46015,7.83412 6.82606,7.96152 7.15338,8.08893 7.44948,8.21633 7.7198,8.34374 7.96846,8.47114 8.19869,8.59855 8.41303,8.72595 8.61353,8.85336 8.80187,8.98076 8.97944,9.10817 9.14741,9.23557 9.30677,9.36298 9.45834,9.49038 9.60286,9.61779 9.74096,9.74519 9.87318,9.8726 10,10" fill="none" stroke="black" stroke-width="0.15" />
</g>
<g transform="matrix( 0.5,0,0.0.25,0,3.75 )">
<path d="M 0,0 2.15338,3.67003 3.41303,5.47425 4.30677,6.6944 5,7.45191 5.56641,7.57931 6.04531,7.70671 6.46015,7.83412 6.82606,7.96152 7.15338,8.08893 7.44948,8.21633 7.7198,8.34374 7.96846,8.47114 8.19869,8.59855 8.41303,8.72595 8.61353,8.85336 8.80187,8.98076 8.97944,9.10817 9.14741,9.23557 9.30677,9.36298 9.45834,9.49038 9.60286,9.61779 9.74096,9.74519 9.87318,9.8726 10,10" fill="none" stroke="black" stroke-width="0.15" />
</g>
<g transform="matrix( 0.5,0,0.0.25,0,5 )">
<path d="M 0,0 2.15338,3.83759 3.41303,5.72418 4.30677,7.00004 5,7.37855 5.56641,7.50962 6.04531,7.64069 6.46015,7.77176 6.82606,7.90284 7.15338,8.03391 7.44948,8.16498 7.7198,8.29605 7.96846,8.42713 8.19869,8.5582 8.41303,8.68927 8.61353,8.82035 8.80187,8.95142 8.97944,9.08249 9.14741,9.21356 9.30677,9.34464 9.45834,9.47571 9.60286,9.60678 9.74096,9.73785 9.87318,9.86893 10,10" fill="none" stroke="black" stroke-width="0.15" />
</g>
<g transform="matrix( 0.5,0,0.0.25,0,6.25 )">
<path d="M 0,0 2.15338,3.83759 3.41303,5.72418 4.30677,7.00004 5,7.37855 5.56641,7.50962 6.04531,7.64069 6.46015,7.77176 6.82606,7.90284 7.15338,8.03391 7.44948,8.16498 7.7198,8.29605 7.96846,8.42713 8.19869,8.5582 8.41303,8.68927 8.61353,8.82035 8.80187,8.95142 8.97944,9.08249 9.14741,9.21356 9.30677,9.34464 9.45834,9.47571 9.60286,9.60678 9.74096,9.73785 9.87318,9.86893 10,10" fill="none" stroke="black" stroke-width="0.15" />
</g>
<g transform="matrix( 0.5,0,0.0.25,0,7.5 )">
<path d="M 0,0 2.15338,4.04862 3.41303,6.03895 4.30677,7.1422 5,7.27829 5.56641,7.41437 6.04531,7.55046 6.46015,7.68655 6.82606,7.82263 7.15338,7.95872 7.44948,8.0948 7.7198,8.23089 7.96846,8.36697 8.19869,8.50306 8.41303,8.63914 8.61353,8.77523 8.80187,8.91132 8.97944,9.0474 9.14741,9.18349 9.30677,9.31957 9.45834,9.45566 9.60286,9.59174 9.74096,9.72783 9.87318,9.86391 10,10" fill="none" stroke="black" stroke-width="0.15" />
</g>
<path d="M  2.82205,1.77672 2.70988,3.00563 2.58589,4.23089 2.58589,5.48089 2.44727,6.70126 2.44727,7.95126 2.29012,9.16484" stroke="black" stroke-width="0.1" style="stroke-dasharray:0.2"/>
<path d="M -0.5,11 -0.5,0" stroke="black" stroke-width="0.05"/>
<path d="M -0.5,11 5.5,11" stroke="black" stroke-width="0.05"/>
</g>
	</g>
	<g transform="translate(20,0)">
	<text x="0" y="-1" style="font-size:1.5;fill:black;font-family:Sans;">B</text>
<g transform="translate( 0, 0 )">
<rect x="0" y="0" width="1" height="1" fill="black" opacity="0.685547" stroke="black" stroke-width="0.1" />
<rect x="0" y="1" width="1" height="1" fill="black" opacity="0.685547" stroke="black" stroke-width="0.1" />
<rect x="0" y="2" width="1" height="1" fill="black" opacity="0.742238" stroke="black" stroke-width="0.1" />
<rect x="0" y="3" width="1" height="1" fill="black" opacity="0.685547" stroke="black" stroke-width="0.1" />
<rect x="0" y="4" width="1" height="1" fill="black" opacity="0.844042" stroke="black" stroke-width="0.1" />
<rect x="0" y="5" width="1" height="1" fill="black" opacity="0.844042" stroke="black" stroke-width="0.1" />
<rect x="0" y="6" width="1" height="1" fill="black" opacity="0.844042" stroke="black" stroke-width="0.1" />
<rect x="1" y="0" width="1" height="1" fill="black" opacity="0.563451" stroke="black" stroke-width="0.1" />
<rect x="1" y="1" width="1" height="1" fill="black" opacity="0.563451" stroke="black" stroke-width="0.1" />
<rect x="1" y="2" width="1" height="1" fill="black" opacity="0.685547" stroke="black" stroke-width="0.1" />
<rect x="1" y="3" width="1" height="1" fill="black" opacity="0.5" stroke="black" stroke-width="0.1" />
<rect x="1" y="4" width="1" height="1" fill="black" opacity="0.685547" stroke="black" stroke-width="0.1" />
<rect x="1" y="5" width="1" height="1" fill="black" opacity="0.685547" stroke="black" stroke-width="0.1" />
<rect x="1" y="6" width="1" height="1" fill="black" opacity="0.625666" stroke="black" stroke-width="0.1" />
<rect x="2" y="0" width="1" height="1" fill="black" opacity="0.685547" stroke="black" stroke-width="0.1" />
<rect x="2" y="1" width="1" height="1" fill="black" opacity="0.625666" stroke="black" stroke-width="0.1" />
<rect x="2" y="2" width="1" height="1" fill="black" opacity="0.742238" stroke="black" stroke-width="0.1" />
<rect x="2" y="3" width="1" height="1" fill="black" opacity="0.625666" stroke="black" stroke-width="0.1" />
<rect x="2" y="4" width="1" height="1" fill="black" opacity="0.844042" stroke="black" stroke-width="0.1" />
<rect x="2" y="5" width="1" height="1" fill="black" opacity="0.795167" stroke="black" stroke-width="0.1" />
<rect x="2" y="6" width="1" height="1" fill="black" opacity="0.8888" stroke="black" stroke-width="0.1" />
<rect x="3" y="0" width="1" height="1" fill="black" opacity="0.563451" stroke="black" stroke-width="0.1" />
<rect x="3" y="1" width="1" height="1" fill="black" opacity="0.563451" stroke="black" stroke-width="0.1" />
<rect x="3" y="2" width="1" height="1" fill="black" opacity="0.685547" stroke="black" stroke-width="0.1" />
<rect x="3" y="3" width="1" height="1" fill="black" opacity="0.563451" stroke="black" stroke-width="0.1" />
<rect x="3" y="4" width="1" height="1" fill="black" opacity="0.795167" stroke="black" stroke-width="0.1" />
<rect x="3" y="5" width="1" height="1" fill="black" opacity="0.742238" stroke="black" stroke-width="0.1" />
<rect x="3" y="6" width="1" height="1" fill="black" opacity="0.844042" stroke="black" stroke-width="0.1" />
<rect x="4" y="0" width="1" height="1" fill="black" opacity="0.742238" stroke="black" stroke-width="0.1" />
<rect x="4" y="1" width="1" height="1" fill="black" opacity="0.742238" stroke="black" stroke-width="0.1" />
<rect x="4" y="2" width="1" height="1" fill="black" opacity="0.795167" stroke="black" stroke-width="0.1" />
<rect x="4" y="3" width="1" height="1" fill="black" opacity="0.795167" stroke="black" stroke-width="0.1" />
<rect x="4" y="4" width="1" height="1" fill="black" opacity="0.929553" stroke="black" stroke-width="0.1" />
<rect x="4" y="5" width="1" height="1" fill="black" opacity="0.929553" stroke="black" stroke-width="0.1" />
<rect x="4" y="6" width="1" height="1" fill="black" opacity="0.966525" stroke="black" stroke-width="0.1" />
<rect x="5" y="0" width="1" height="1" fill="black" opacity="0.685547" stroke="black" stroke-width="0.1" />
<rect x="5" y="1" width="1" height="1" fill="black" opacity="0.685547" stroke="black" stroke-width="0.1" />
<rect x="5" y="2" width="1" height="1" fill="black" opacity="0.742238" stroke="black" stroke-width="0.1" />
<rect x="5" y="3" width="1" height="1" fill="black" opacity="0.742238" stroke="black" stroke-width="0.1" />
<rect x="5" y="4" width="1" height="1" fill="black" opacity="0.929553" stroke="black" stroke-width="0.1" />
<rect x="5" y="5" width="1" height="1" fill="black" opacity="0.8888" stroke="black" stroke-width="0.1" />
<rect x="5" y="6" width="1" height="1" fill="black" opacity="1" stroke="black" stroke-width="0.1" />
<rect x="6" y="0" width="1" height="1" fill="black" opacity="0.685547" stroke="black" stroke-width="0.1" />
<rect x="6" y="1" width="1" height="1" fill="black" opacity="0.685547" stroke="black" stroke-width="0.1" />
<rect x="6" y="2" width="1" height="1" fill="black" opacity="0.742238" stroke="black" stroke-width="0.1" />
<rect x="6" y="3" width="1" height="1" fill="black" opacity="0.742238" stroke="black" stroke-width="0.1" />
<rect x="6" y="4" width="1" height="1" fill="black" opacity="0.8888" stroke="black" stroke-width="0.1" />
<rect x="6" y="5" width="1" height="1" fill="black" opacity="0.8888" stroke="black" stroke-width="0.1" />
<rect x="6" y="6" width="1" height="1" fill="black" opacity="0.966525" stroke="black" stroke-width="0.1" />
<rect x="0" y="0" width="7" height="7" fill="none" stroke="black" stroke-width="0.1" />
<rect x="0" y="9" width="0.75" height="0.75" fill="black" opacity="0.5" stroke="black" stroke-width="0.1" />
<rect x="0.75" y="9" width="0.75" height="0.75" fill="black" opacity="0.655958" stroke="black" stroke-width="0.1" />
<rect x="1.5" y="9" width="0.75" height="0.75" fill="black" opacity="0.795167" stroke="black" stroke-width="0.1" />
<rect x="2.25" y="9" width="0.75" height="0.75" fill="black" opacity="0.909666" stroke="black" stroke-width="0.1" />
<rect x="3" y="9" width="0.75" height="0.75" fill="black" opacity="1" stroke="black" stroke-width="0.1" />
<text x="0" y="8.8" style="font-size:0.5;fill:black;font-family:Sans;text-anchor:middle;">11</text>
<text x="3.75" y="8.8" style="font-size:0.5;fill:black;font-family:Sans;text-anchor:middle;">21</text>
</g>
<g transform="translate( 10, 0 )">
<g transform="matrix( 0.5,0,0.0.25,0,0 )">
<path d="M 0,0 3.0103,2.32982 4.77121,3.17578 6.0206,4.39098 6.9897,5.48944 7.78151,6.58789 8.45098,6.58789 9.0309,6.90559 9.54243,10 10,10" fill="none" stroke="black" stroke-width="0.15" />
</g>
<g transform="matrix( 0.5,0,0.0.25,0,1.25 )">
<path d="M 0,1.77636e-15 3.0103,3.15533 4.77121,4.23935 6.0206,5.32779 6.9897,6.79434 7.78151,7.05216 8.45098,7.05216 9.0309,7.93522 9.54243,10 10,10" fill="none" stroke="black" stroke-width="0.15" />
</g>
<g transform="matrix( 0.5,0,0.0.25,0,2.5 )">
<path d="M 0,1.77636e-15 3.0103,2.53049 4.77121,3.65111 6.0206,4.99719 6.9897,6.26524 7.78151,6.94472 8.45098,7.46389 9.0309,10 9.54243,10 10,10" fill="none" stroke="black" stroke-width="0.15" />
</g>
<g transform="matrix( 0.5,0,0.0.25,0,3.75 )">
<path d="M 0,0 3.0103,2.92157 4.77121,3.85324 6.0206,5.02777 6.9897,5.37609 7.78151,6.86287 8.45098,6.86287 9.0309,8.33571 9.54243,10 10,10" fill="none" stroke="black" stroke-width="0.15" />
</g>
<g transform="matrix( 0.5,0,0.0.25,0,5 )">
<path d="M 0,1.77636e-15 3.0103,2.50838 4.77121,3.62551 6.0206,4.79756 6.9897,5.4328 7.78151,6.81275 8.45098,6.81275 9.0309,9.56174 9.54243,10 10,10" fill="none" stroke="black" stroke-width="0.15" />
</g>
<g transform="matrix( 0.5,0,0.0.25,0,6.25 )">
<path d="M 0,0 3.0103,2.44708 4.77121,4.04618 6.0206,5.64528 6.9897,6.70578 7.78151,6.70578 8.45098,9.54703 9.0309,10 9.54243,10 10,10" fill="none" stroke="black" stroke-width="0.15" />
</g>
<g transform="matrix( 0.5,0,0.0.25,0,7.5 )">
<path d="M 0,0 3.0103,2.55555 4.77121,3.47465 6.0206,4.6064 6.9897,4.98424 7.78151,6.59702 8.45098,6.59702 9.0309,9.01481 9.54243,10 10,10" fill="none" stroke="black" stroke-width="0.15" />
</g>
<path d="M 0,11 0,0" stroke="black" stroke-width="0.05"/>
<path d="M 0,11 5,11" stroke="black" stroke-width="0.05"/>
</g>
<g transform="translate( 17, 0 )">
<g transform="matrix( 0.5,0,0.0.25,0,0 )">
<path d="M 0,0 3.0103,2.05593 4.77121,4.04813 6.0206,4.04813 6.9897,4.68623 7.78151,6.24479 8.45098,7.23254 9.0309,10 9.54243,10 10,10" fill="none" stroke="black" stroke-width="0.15" />
</g>
<g transform="matrix( 0.5,0,0.0.25,0,1.25 )">
<path d="M 0,0 3.0103,1.96455 4.77121,4.13072 6.0206,5.10477 6.9897,6.2969 7.78151,6.2969 8.45098,10 9.0309,10 9.54243,10 10,10" fill="none" stroke="black" stroke-width="0.15" />
</g>
<g transform="matrix( 0.5,0,0.0.25,0,2.5 )">
<path d="M 0,0 3.0103,1.72811 4.77121,3.71934 6.0206,4.21678 6.9897,6.03735 7.78151,6.03735 8.45098,6.80073 9.0309,10 9.54243,10 10,10" fill="none" stroke="black" stroke-width="0.15" />
</g>
<g transform="matrix( 0.5,0,0.0.25,0,3.75 )">
<path d="M 0,0 3.0103,2.07469 4.77121,2.83808 6.0206,3.71934 6.9897,5.36399 7.78151,6.03735 8.45098,7.682 9.0309,10 9.54243,10 10,10" fill="none" stroke="black" stroke-width="0.15" />
</g>
<g transform="matrix( 0.5,0,0.0.25,0,5 )">
<path d="M 0,0 3.0103,3.26175 4.77121,3.71934 6.0206,4.21678 6.9897,6.03735 7.78151,6.03735 8.45098,10 9.0309,10 9.54243,10 10,10" fill="none" stroke="black" stroke-width="0.15" />
</g>
<g transform="matrix( 0.5,0,0.0.25,0,6.25 )">
<path d="M 0,0 3.0103,1.66988 4.77121,3.62298 6.0206,4.91824 6.9897,5.97655 7.78151,5.97655 8.45098,10 9.0309,10 9.54243,10 10,10" fill="none" stroke="black" stroke-width="0.15" />
</g>
<g transform="matrix( 0.5,0,0.0.25,0,7.5 )">
<path d="M 0,0 3.0103,1.85404 4.77121,4.39547 6.0206,5.2095 6.9897,5.2095 7.78151,5.2095 8.45098,5.2095 9.0309,7.19773 9.54243,10 10,10" fill="none" stroke="black" stroke-width="0.15" />
</g>
<path d="M 0,11 0,0" stroke="black" stroke-width="0.05"/>
<path d="M 0,11 5,11" stroke="black" stroke-width="0.05"/>
</g>
	</g>
</svg>