<?xml version="1.0" encoding="UTF-8" standalone="no"?>
<svg
   xmlns:dc="http://purl.org/dc/elements/1.1/"
   xmlns:cc="http://creativecommons.org/ns#"
   xmlns:rdf="http://www.w3.org/1999/02/22-rdf-syntax-ns#"
   xmlns:svg="http://www.w3.org/2000/svg"
   xmlns="http://www.w3.org/2000/svg"
   xmlns:sodipodi="http://sodipodi.sourceforge.net/DTD/sodipodi-0.dtd"
   xmlns:inkscape="http://www.inkscape.org/namespaces/inkscape"
   id="svg2"
   version="1.1"
   inkscape:version="0.48.3.1 r9886"
   width="100%"
   height="100%"
   sodipodi:docname="ternary.svg">
  <metadata
     id="metadata48">
    <rdf:RDF>
      <cc:Work
         rdf:about="">
        <dc:format>image/svg+xml</dc:format>
        <dc:type
           rdf:resource="http://purl.org/dc/dcmitype/StillImage" />
      </cc:Work>
    </rdf:RDF>
  </metadata>
  <defs
     id="defs46">
    <marker
       inkscape:stockid="Arrow1Mend"
       orient="auto"
       refY="0.0"
       refX="0.0"
       id="Arrow1Mend"
       style="overflow:visible;">
      <path
         id="path3810"
         d="M 0.0,0.0 L 5.0,-5.0 L -12.5,0.0 L 5.0,5.0 L 0.0,0.0 z "
         style="fill-rule:evenodd;stroke:#000000;stroke-width:1.0pt;"
         transform="scale(0.4) rotate(180) translate(10,0)" />
    </marker>
    <marker
       inkscape:stockid="Arrow1Mstart"
       orient="auto"
       refY="0.0"
       refX="0.0"
       id="Arrow1Mstart"
       style="overflow:visible">
      <path
         id="path3807"
         d="M 0.0,0.0 L 5.0,-5.0 L -12.5,0.0 L 5.0,5.0 L 0.0,0.0 z "
         style="fill-rule:evenodd;stroke:#000000;stroke-width:1.0pt"
         transform="scale(0.4) translate(10,0)" />
    </marker>
    <marker
       inkscape:stockid="Arrow1Mstart"
       orient="auto"
       refY="0"
       refX="0"
       id="Arrow1Mstart-1"
       style="overflow:visible">
      <path
         inkscape:connector-curvature="0"
         id="path3807-4"
         d="M 0,0 5,-5 -12.5,0 5,5 0,0 z"
         style="fill-rule:evenodd;stroke:#000000;stroke-width:1pt"
         transform="matrix(0.4,0,0,0.4,4,0)" />
    </marker>
    <marker
       inkscape:stockid="Arrow1Mend"
       orient="auto"
       refY="0"
       refX="0"
       id="Arrow1Mend-1"
       style="overflow:visible">
      <path
         inkscape:connector-curvature="0"
         id="path3810-4"
         d="M 0,0 5,-5 -12.5,0 5,5 0,0 z"
         style="fill-rule:evenodd;stroke:#000000;stroke-width:1pt"
         transform="matrix(-0.4,0,0,-0.4,-4,0)" />
    </marker>
    <marker
       inkscape:stockid="Arrow1Mstart"
       orient="auto"
       refY="0"
       refX="0"
       id="Arrow1Mstart-18"
       style="overflow:visible">
      <path
         inkscape:connector-curvature="0"
         id="path3807-7"
         d="M 0,0 5,-5 -12.5,0 5,5 0,0 z"
         style="fill-rule:evenodd;stroke:#000000;stroke-width:1pt"
         transform="matrix(0.4,0,0,0.4,4,0)" />
    </marker>
    <marker
       inkscape:stockid="Arrow1Mend"
       orient="auto"
       refY="0"
       refX="0"
       id="Arrow1Mend-7"
       style="overflow:visible">
      <path
         inkscape:connector-curvature="0"
         id="path3810-0"
         d="M 0,0 5,-5 -12.5,0 5,5 0,0 z"
         style="fill-rule:evenodd;stroke:#000000;stroke-width:1pt"
         transform="matrix(-0.4,0,0,-0.4,-4,0)" />
    </marker>
  </defs>
  <sodipodi:namedview
     pagecolor="#ffffff"
     bordercolor="#666666"
     borderopacity="1"
     objecttolerance="10"
     gridtolerance="10"
     guidetolerance="10"
     inkscape:pageopacity="0"
     inkscape:pageshadow="2"
     inkscape:window-width="1024"
     inkscape:window-height="576"
     id="namedview44"
     showgrid="false"
     inkscape:zoom="3.7877905"
     inkscape:cx="161.95438"
     inkscape:cy="989.2727"
     inkscape:window-x="0"
     inkscape:window-y="24"
     inkscape:window-maximized="1"
     inkscape:current-layer="svg2">
    <inkscape:grid
       type="xygrid"
       id="grid3025" />
  </sodipodi:namedview>

<text x="-76" y="50" style="font-size:10px;fill:black;fill-opacity:1;stroke:none;font-family:Sans">A</text>

<g transform="matrix( 6, 0, 0, 6, -70, 70)">
<path d="M -1,16 -1,-1" style="fill:none;stroke:#000000;stroke-width:0.1;stroke-linecap:butt;stroke-linejoin:miter;stroke-miterlimit:4;stroke-opacity:1;stroke-dasharray:none;marker-end:url(#Arrow1Mend)" />
<path d="M -1,16 16,16" style="fill:none;stroke:#000000;stroke-width:0.1;stroke-linecap:butt;stroke-linejoin:miter;stroke-miterlimit:4;stroke-opacity:1;stroke-dasharray:none;marker-end:url(#Arrow1Mend)" />
<path d="M 0.0247117,4.38598 0.14827,5.16927 0.271829,5.64073 0.395387,5.88271 0.518946,6.0748 0.642504,6.25436 0.766063,6.29881 0.889621,6.33292 1.01318,6.39534 1.13674,6.46275 1.2603,6.51211 1.38386,6.54573 1.50741,6.66686 1.63097,6.73052 1.75453,6.81526 1.87809,6.84738 2.00165,6.88649 2.12521,6.90937 2.24876,6.94345 2.37232,6.97904 2.49588,7.12194 2.61944,7.17905 2.743,7.24185 2.86656,7.29881 2.99012,7.33168 3.11367,7.39134 3.23723,7.42824 3.36079,7.47756 3.48435,7.51665 3.60791,7.56713 3.73147,7.62787 3.85502,7.67645 3.97858,7.74978 4.10214,7.82737 4.2257,7.86876 4.34926,7.98198 4.47282,8.01728 4.59638,8.07652 4.71993,8.15568 4.84349,8.21394 4.96705,8.26751 5.09061,8.33014 5.21417,8.36903 5.33773,8.39297 5.46129,8.458 5.58484,8.49528 5.7084,8.58652 5.83196,8.65523 5.95552,8.71269 6.07908,8.74952 6.20264,8.81425 6.32619,8.90047 6.44975,9.02919 6.57331,9.08125 6.69687,9.17797 6.82043,9.23266 6.94399,9.29929 7.06755,9.35834 7.1911,9.45191 7.31466,9.60148 7.43822,9.73044 7.56178,9.78815 7.68534,9.87487 7.8089,9.94032 7.93245,10.0717 8.05601,10.1594 8.17957,10.3126 8.30313,10.4522 8.42669,10.5064 8.55025,10.5934 8.67381,10.6917 8.79736,10.7232 8.92092,10.8204 9.04448,10.887 9.16804,11.0065 9.2916,11.1297 9.41516,11.2101 9.53871,11.3129 9.66227,11.4332 9.78583,11.4917 9.90939,11.5277 10.0329,11.6331 10.1565,11.6604 10.2801,11.724 10.4036,11.9119 10.5272,11.9977 10.6507,12.1036 10.7743,12.2169 10.8979,12.2964 11.0214,12.3477 11.145,12.434 11.2685,12.5073 11.3921,12.6298 11.5157,12.6771 11.6392,12.8639 11.7628,12.9219 11.8863,13.0224 12.0099,13.0942 12.1334,13.1195 12.257,13.216 12.3806,13.2776 12.5041,13.3062 12.6277,13.3622 12.7512,13.4503 12.8748,13.5538 12.9984,13.5986 13.1219,13.7284 13.2455,13.8101 13.369,13.9078 13.4926,13.9524 13.6161,14.0339 13.7397,14.1251 13.8633,14.1683 13.9868,14.2122 14.1104,14.2755 14.2339,14.3864 14.3575,14.4782 14.4811,14.5657 14.6046,14.6208 14.7282,14.8013 14.8517,14.8953 14.9753,15" style="fill:none;stroke:#000000;stroke-width:0.05;stroke-linecap:butt;stroke-linejoin:miter;stroke-miterlimit:4;stroke-opacity:1;stroke-dasharray:" />
<path d="M 0.0247117,1.61023 0.14827,2.44059 0.271829,2.65159 0.395387,2.97529 0.518946,3.04508 0.642504,3.17267 0.766063,3.39991 0.889621,3.54295 1.01318,3.67525 1.13674,3.77061 1.2603,3.83321 1.38386,3.85878 1.50741,3.90465 1.63097,3.99422 1.75453,4.0408 1.87809,4.0627 2.00165,4.17096 2.12521,4.216 2.24876,4.25762 2.37232,4.30345 2.49588,4.33863 2.61944,4.41091 2.743,4.44286 2.86656,4.47783 2.99012,4.53382 3.11367,4.56623 3.23723,4.61354 3.36079,4.65169 3.48435,4.70925 3.60791,4.73134 3.73147,4.85117 3.85502,4.88653 3.97858,4.93526 4.10214,5.046 4.2257,5.09517 4.34926,5.12843 4.47282,5.19303 4.59638,5.20454 4.71993,5.25007 4.84349,5.32516 4.96705,5.39805 5.09061,5.44883 5.21417,5.52835 5.33773,5.61102 5.46129,5.65724 5.58484,5.69834 5.7084,5.74767 5.83196,5.87311 5.95552,5.9476 6.07908,5.98121 6.20264,6.07945 6.32619,6.1851 6.44975,6.21814 6.57331,6.30186 6.69687,6.40242 6.82043,6.47715 6.94399,6.59064 7.06755,6.66711 7.1911,6.85272 7.31466,7.00224 7.43822,7.06715 7.56178,7.17064 7.68534,7.29138 7.8089,7.38385 7.93245,7.46258 8.05601,7.61013 8.17957,7.68087 8.30313,7.73271 8.42669,7.86144 8.55025,8.12169 8.67381,8.16066 8.79736,8.39034 8.92092,8.46407 9.04448,8.62607 9.16804,8.78656 9.2916,8.9032 9.41516,9.04026 9.53871,9.17725 9.66227,9.25553 9.78583,9.28567 9.90939,9.46128 10.0329,9.6039 10.1565,9.65572 10.2801,9.89966 10.4036,10.0455 10.5272,10.3028 10.6507,10.5222 10.7743,10.6055 10.8979,10.6521 11.0214,10.7662 11.145,10.8587 11.2685,10.9267 11.3921,11.0359 11.5157,11.1756 11.6392,11.3704 11.7628,11.4752 11.8863,11.6416 12.0099,11.7869 12.1334,11.8353 12.257,11.9223 12.3806,12.1323 12.5041,12.2557 12.6277,12.3336 12.7512,12.4155 12.8748,12.4706 12.9984,12.6236 13.1219,12.6491 13.2455,12.8756 13.369,12.9068 13.4926,13.0199 13.6161,13.199 13.7397,13.3982 13.8633,13.5304 13.9868,13.6685 14.1104,13.7518 14.2339,13.9259 14.3575,14.0205 14.4811,14.1626 14.6046,14.2896 14.7282,14.4353 14.8517,14.7167 14.9753,14.9931" style="fill:none;stroke:#000000;stroke-width:0.05;stroke-linecap:butt;stroke-linejoin:miter;stroke-miterlimit:4;stroke-opacity:1;stroke-dasharray:" />
<path d="M 0.0247117,2.46055 0.14827,3.17798 0.271829,3.72164 0.395387,3.7618 0.518946,4.05039 0.642504,4.1949 0.766063,4.26628 0.889621,4.42366 1.01318,4.52278 1.13674,4.61656 1.2603,4.68967 1.38386,4.77892 1.50741,4.95972 1.63097,5.08331 1.75453,5.17032 1.87809,5.25768 2.00165,5.29356 2.12521,5.3461 2.24876,5.44069 2.37232,5.46558 2.49588,5.55097 2.61944,5.57916 2.743,5.62826 2.86656,5.72116 2.99012,5.79265 3.11367,5.85313 3.23723,5.88929 3.36079,5.92052 3.48435,5.95365 3.60791,6.01893 3.73147,6.05253 3.85502,6.1106 3.97858,6.15465 4.10214,6.17271 4.2257,6.27198 4.34926,6.31071 4.47282,6.35736 4.59638,6.40536 4.71993,6.46774 4.84349,6.53541 4.96705,6.55557 5.09061,6.63493 5.21417,6.76102 5.33773,6.83703 5.46129,6.87178 5.58484,6.90562 5.7084,6.97131 5.83196,7.05585 5.95552,7.07351 6.07908,7.20223 6.20264,7.28915 6.32619,7.34736 6.44975,7.39192 6.57331,7.55347 6.69687,7.66825 6.82043,7.77343 6.94399,7.95491 7.06755,8.03056 7.1911,8.07356 7.31466,8.17475 7.43822,8.36466 7.56178,8.50315 7.68534,8.60204 7.8089,8.678 7.93245,8.77607 8.05601,8.9376 8.17957,9.05248 8.30313,9.15411 8.42669,9.31075 8.55025,9.44876 8.67381,9.48267 8.79736,9.53982 8.92092,9.6189 9.04448,9.78298 9.16804,9.83709 9.2916,9.89784 9.41516,9.99847 9.53871,10.0766 9.66227,10.3438 9.78583,10.4526 9.90939,10.5578 10.0329,10.6518 10.1565,10.7583 10.2801,10.8864 10.4036,11.0477 10.5272,11.1866 10.6507,11.2975 10.7743,11.3813 10.8979,11.4243 11.0214,11.548 11.145,11.7416 11.2685,11.8693 11.3921,11.9852 11.5157,12.085 11.6392,12.1469 11.7628,12.2111 11.8863,12.2906 12.0099,12.438 12.1334,12.6078 12.257,12.7113 12.3806,12.8255 12.5041,12.943 12.6277,13.0329 12.7512,13.1256 12.8748,13.1754 12.9984,13.2679 13.1219,13.3996 13.2455,13.5452 13.369,13.603 13.4926,13.6732 13.6161,13.7119 13.7397,13.8908 13.8633,13.9333 13.9868,13.9512 14.1104,14.0592 14.2339,14.1554 14.3575,14.2743 14.4811,14.3786 14.6046,14.6103 14.7282,14.695 14.8517,14.7963 14.9753,14.994" style="fill:none;stroke:#000000;stroke-width:0.05;stroke-linecap:butt;stroke-linejoin:miter;stroke-miterlimit:4;stroke-opacity:1;stroke-dasharray:" />
<path d="M 0.0247117,4.84278 0.14827,5.88258 0.271829,6.27199 0.395387,6.73468 0.518946,6.91848 0.642504,7.0767 0.766063,7.19285 0.889621,7.36799 1.01318,7.53813 1.13674,7.62781 1.2603,7.73772 1.38386,7.8455 1.50741,7.93512 1.63097,8.00787 1.75453,8.11433 1.87809,8.21434 2.00165,8.27523 2.12521,8.31735 2.24876,8.37666 2.37232,8.42348 2.49588,8.48154 2.61944,8.56661 2.743,8.61522 2.86656,8.66458 2.99012,8.67794 3.11367,8.77488 3.23723,8.79819 3.36079,8.85611 3.48435,8.88685 3.60791,8.93289 3.73147,8.98867 3.85502,9.03677 3.97858,9.07119 4.10214,9.11653 4.2257,9.16546 4.34926,9.19305 4.47282,9.254 4.59638,9.30592 4.71993,9.36291 4.84349,9.41403 4.96705,9.44928 5.09061,9.49572 5.21417,9.56573 5.33773,9.60133 5.46129,9.6767 5.58484,9.72655 5.7084,9.77735 5.83196,9.84345 5.95552,9.95294 6.07908,10.0149 6.20264,10.1348 6.32619,10.2122 6.44975,10.2772 6.57331,10.3472 6.69687,10.4836 6.82043,10.5813 6.94399,10.6591 7.06755,10.7375 7.1911,10.7708 7.31466,10.8507 7.43822,10.9463 7.56178,10.9841 7.68534,11.0718 7.8089,11.1913 7.93245,11.2328 8.05601,11.2774 8.17957,11.389 8.30313,11.4454 8.42669,11.4827 8.55025,11.5497 8.67381,11.6139 8.79736,11.6541 8.92092,11.7346 9.04448,11.805 9.16804,11.9496 9.2916,12.0053 9.41516,12.0608 9.53871,12.2492 9.66227,12.3012 9.78583,12.3213 9.90939,12.3682 10.0329,12.4366 10.1565,12.5432 10.2801,12.5928 10.4036,12.6428 10.5272,12.6982 10.6507,12.7972 10.7743,12.9822 10.8979,13.0459 11.0214,13.0938 11.145,13.1912 11.2685,13.2236 11.3921,13.2825 11.5157,13.3619 11.6392,13.4155 11.7628,13.4681 11.8863,13.4969 12.0099,13.5788 12.1334,13.6952 12.257,13.7706 12.3806,13.8187 12.5041,13.898 12.6277,13.9402 12.7512,13.9618 12.8748,14.0484 12.9984,14.1073 13.1219,14.1722 13.2455,14.212 13.369,14.2406 13.4926,14.2876 13.6161,14.3719 13.7397,14.4241 13.8633,14.4658 13.9868,14.5214 14.1104,14.5815 14.2339,14.6295 14.3575,14.6965 14.4811,14.7892 14.6046,14.8271 14.7282,14.8772 14.8517,14.9827 14.9753,15" style="fill:none;stroke:#000000;stroke-width:0.05;stroke-linecap:butt;stroke-linejoin:miter;stroke-miterlimit:4;stroke-opacity:1;stroke-dasharray:" />
<path d="M 0.0247117,1.70362 0.14827,2.35018 0.271829,2.73164 0.395387,2.944 0.518946,3.04909 0.642504,3.18076 0.766063,3.31753 0.889621,3.46133 1.01318,3.59173 1.13674,3.73569 1.2603,3.81269 1.38386,3.89342 1.50741,3.97915 1.63097,4.08725 1.75453,4.16365 1.87809,4.22931 2.00165,4.34239 2.12521,4.38354 2.24876,4.43032 2.37232,4.47655 2.49588,4.53872 2.61944,4.56365 2.743,4.59252 2.86656,4.66664 2.99012,4.7328 3.11367,4.83827 3.23723,4.89574 3.36079,4.94178 3.48435,4.98462 3.60791,5.02383 3.73147,5.05587 3.85502,5.07748 3.97858,5.11465 4.10214,5.16646 4.2257,5.21269 4.34926,5.3187 4.47282,5.373 4.59638,5.396 4.71993,5.43071 4.84349,5.53336 4.96705,5.65191 5.09061,5.67672 5.21417,5.71712 5.33773,5.90492 5.46129,5.93434 5.58484,5.99166 5.7084,6.09619 5.83196,6.18284 5.95552,6.23528 6.07908,6.409 6.20264,6.4964 6.32619,6.5435 6.44975,6.57819 6.57331,6.63311 6.69687,6.75072 6.82043,6.88406 6.94399,6.94163 7.06755,7.05112 7.1911,7.23153 7.31466,7.4384 7.43822,7.55727 7.56178,7.67812 7.68534,7.78066 7.8089,7.85208 7.93245,7.92389 8.05601,8.06458 8.17957,8.16114 8.30313,8.24014 8.42669,8.36866 8.55025,8.5341 8.67381,8.64244 8.79736,8.68601 8.92092,8.77359 9.04448,8.83143 9.16804,8.922 9.2916,9.06117 9.41516,9.30135 9.53871,9.51736 9.66227,9.60386 9.78583,9.78204 9.90939,9.82876 10.0329,9.97231 10.1565,10.1091 10.2801,10.3426 10.4036,10.4248 10.5272,10.5271 10.6507,10.5649 10.7743,10.6931 10.8979,10.7803 11.0214,10.86 11.145,10.9602 11.2685,11.1974 11.3921,11.3671 11.5157,11.4904 11.6392,11.6088 11.7628,11.8082 11.8863,11.9565 12.0099,12.0668 12.1334,12.3055 12.257,12.3602 12.3806,12.522 12.5041,12.626 12.6277,12.7529 12.7512,12.8663 12.8748,13.0073 12.9984,13.1168 13.1219,13.2644 13.2455,13.417 13.369,13.4278 13.4926,13.5834 13.6161,13.6455 13.7397,13.7334 13.8633,13.8264 13.9868,13.9214 14.1104,14.0299 14.2339,14.3026 14.3575,14.3357 14.4811,14.4129 14.6046,14.5787 14.7282,14.6867 14.8517,14.8436 14.9753,14.9692" style="fill:none;stroke:#000000;stroke-width:0.05;stroke-linecap:butt;stroke-linejoin:miter;stroke-miterlimit:4;stroke-opacity:1;stroke-dasharray:" />
<path d="M 0.0247117,5.58838 0.14827,6.84494 0.271829,7.29267 0.395387,7.4319 0.518946,7.5155 0.642504,7.56032 0.766063,7.71013 0.889621,7.83808 1.01318,7.97925 1.13674,8.10215 1.2603,8.19886 1.38386,8.24083 1.50741,8.27644 1.63097,8.37909 1.75453,8.52727 1.87809,8.5851 2.00165,8.61678 2.12521,8.67186 2.24876,8.70806 2.37232,8.75006 2.49588,8.78033 2.61944,8.86524 2.743,8.88668 2.86656,8.93778 2.99012,8.96241 3.11367,9.01035 3.23723,9.04128 3.36079,9.08157 3.48435,9.10449 3.60791,9.13887 3.73147,9.23595 3.85502,9.25657 3.97858,9.29752 4.10214,9.32864 4.2257,9.36427 4.34926,9.38831 4.47282,9.41933 4.59638,9.50049 4.71993,9.58116 4.84349,9.63105 4.96705,9.69138 5.09061,9.71769 5.21417,9.75875 5.33773,9.79711 5.46129,9.83443 5.58484,9.84593 5.7084,9.87894 5.83196,9.91305 5.95552,9.94814 6.07908,9.98595 6.20264,10.0477 6.32619,10.084 6.44975,10.1302 6.57331,10.1786 6.69687,10.267 6.82043,10.331 6.94399,10.4307 7.06755,10.5125 7.1911,10.5965 7.31466,10.7486 7.43822,10.8039 7.56178,10.9017 7.68534,11.0005 7.8089,11.0613 7.93245,11.1065 8.05601,11.1909 8.17957,11.2889 8.30313,11.3979 8.42669,11.4669 8.55025,11.6119 8.67381,11.6995 8.79736,11.795 8.92092,11.8512 9.04448,11.9216 9.16804,11.9935 9.2916,12.0886 9.41516,12.1836 9.53871,12.26 9.66227,12.3382 9.78583,12.396 9.90939,12.493 10.0329,12.5648 10.1565,12.6054 10.2801,12.6682 10.4036,12.6952 10.5272,12.7575 10.6507,12.796 10.7743,12.8476 10.8979,12.9107 11.0214,13.0033 11.145,13.126 11.2685,13.2104 11.3921,13.2734 11.5157,13.3631 11.6392,13.4154 11.7628,13.482 11.8863,13.5619 12.0099,13.6468 12.1334,13.6921 12.257,13.7917 12.3806,13.8239 12.5041,13.8888 12.6277,13.9345 12.7512,13.9826 12.8748,14.01 12.9984,14.0397 13.1219,14.0848 13.2455,14.1619 13.369,14.1879 13.4926,14.2083 13.6161,14.2492 13.7397,14.3409 13.8633,14.3982 13.9868,14.4406 14.1104,14.5219 14.2339,14.5833 14.3575,14.6825 14.4811,14.7152 14.6046,14.7524 14.7282,14.8215 14.8517,14.897 14.9753,14.9948" style="fill:none;stroke:#000000;stroke-width:0.05;stroke-linecap:butt;stroke-linejoin:miter;stroke-miterlimit:4;stroke-opacity:1;stroke-dasharray:" />
<path d="M 0.0247117,2.98802 0.14827,3.89253 0.271829,4.19413 0.395387,4.3541 0.518946,4.59545 0.642504,4.77467 0.766063,4.82932 0.889621,4.87428 1.01318,4.92264 1.13674,5.05209 1.2603,5.13421 1.38386,5.29979 1.50741,5.34023 1.63097,5.3884 1.75453,5.44942 1.87809,5.47059 2.00165,5.58373 2.12521,5.62108 2.24876,5.66409 2.37232,5.69171 2.49588,5.71512 2.61944,5.74607 2.743,5.82365 2.86656,5.87609 2.99012,5.93036 3.11367,5.97744 3.23723,6.02998 3.36079,6.07819 3.48435,6.11062 3.60791,6.16473 3.73147,6.23401 3.85502,6.30864 3.97858,6.35305 4.10214,6.4252 4.2257,6.46097 4.34926,6.50367 4.47282,6.5364 4.59638,6.585 4.71993,6.61741 4.84349,6.6828 4.96705,6.79971 5.09061,6.87941 5.21417,7.01546 5.33773,7.08532 5.46129,7.1165 5.58484,7.21572 5.7084,7.27946 5.83196,7.31144 5.95552,7.38113 6.07908,7.52318 6.20264,7.59654 6.32619,7.72798 6.44975,7.81665 6.57331,7.86603 6.69687,8.01933 6.82043,8.12418 6.94399,8.23359 7.06755,8.27671 7.1911,8.35855 7.31466,8.43791 7.43822,8.54916 7.56178,8.67722 7.68534,8.85097 7.8089,8.9565 7.93245,9.08673 8.05601,9.18658 8.17957,9.2753 8.30313,9.43644 8.42669,9.61415 8.55025,9.68123 8.67381,9.71232 8.79736,9.81235 8.92092,9.92157 9.04448,10.007 9.16804,10.1107 9.2916,10.1625 9.41516,10.2518 9.53871,10.3778 9.66227,10.5883 9.78583,10.6469 9.90939,10.7807 10.0329,10.9155 10.1565,11.0474 10.2801,11.1616 10.4036,11.236 10.5272,11.2893 10.6507,11.3424 10.7743,11.5215 10.8979,11.6395 11.0214,11.7138 11.145,11.8875 11.2685,11.9112 11.3921,11.9939 11.5157,12.1308 11.6392,12.3546 11.7628,12.4646 11.8863,12.5181 12.0099,12.6085 12.1334,12.7124 12.257,12.7547 12.3806,12.8223 12.5041,12.9771 12.6277,13.0292 12.7512,13.1662 12.8748,13.2209 12.9984,13.3745 13.1219,13.408 13.2455,13.5227 13.369,13.6107 13.4926,13.6863 13.6161,13.7736 13.7397,13.8304 13.8633,13.8946 13.9868,13.9468 14.1104,14.0572 14.2339,14.1491 14.3575,14.2487 14.4811,14.3384 14.6046,14.4384 14.7282,14.5267 14.8517,14.8308 14.9753,14.995" style="fill:none;stroke:#000000;stroke-width:0.05;stroke-linecap:butt;stroke-linejoin:miter;stroke-miterlimit:4;stroke-opacity:1;stroke-dasharray:" />
<path d="M 0.0247117,5.56986 0.14827,6.30256 0.271829,6.55247 0.395387,6.96577 0.518946,7.10745 0.642504,7.25626 0.766063,7.47061 0.889621,7.54185 1.01318,7.59797 1.13674,7.64042 1.2603,7.75096 1.38386,7.80141 1.50741,7.9382 1.63097,7.98927 1.75453,8.06849 1.87809,8.10767 2.00165,8.21137 2.12521,8.27019 2.24876,8.29599 2.37232,8.36861 2.49588,8.49518 2.61944,8.5248 2.743,8.65421 2.86656,8.68904 2.99012,8.70871 3.11367,8.72229 3.23723,8.74794 3.36079,8.829 3.48435,8.88412 3.60791,8.91449 3.73147,8.93993 3.85502,8.98989 3.97858,9.05571 4.10214,9.10681 4.2257,9.16196 4.34926,9.1941 4.47282,9.25742 4.59638,9.29651 4.71993,9.3391 4.84349,9.38291 4.96705,9.43924 5.09061,9.51564 5.21417,9.53966 5.33773,9.57946 5.46129,9.62505 5.58484,9.69081 5.7084,9.78489 5.83196,9.84558 5.95552,9.93673 6.07908,9.99638 6.20264,10.0448 6.32619,10.1249 6.44975,10.1974 6.57331,10.3096 6.69687,10.3806 6.82043,10.4528 6.94399,10.5392 7.06755,10.5934 7.1911,10.6599 7.31466,10.715 7.43822,10.8075 7.56178,10.9023 7.68534,11.0469 7.8089,11.1449 7.93245,11.2293 8.05601,11.2811 8.17957,11.3844 8.30313,11.4708 8.42669,11.5474 8.55025,11.6015 8.67381,11.6701 8.79736,11.7438 8.92092,11.8003 9.04448,11.8657 9.16804,11.9085 9.2916,11.9469 9.41516,12.0413 9.53871,12.1222 9.66227,12.1785 9.78583,12.2142 9.90939,12.2779 10.0329,12.368 10.1565,12.4747 10.2801,12.555 10.4036,12.6659 10.5272,12.7457 10.6507,12.799 10.7743,12.8574 10.8979,12.9457 11.0214,13.0007 11.145,13.1594 11.2685,13.2233 11.3921,13.3155 11.5157,13.3432 11.6392,13.4036 11.7628,13.5558 11.8863,13.5959 12.0099,13.6398 12.1334,13.6827 12.257,13.7278 12.3806,13.7804 12.5041,13.8726 12.6277,13.909 12.7512,13.9319 12.8748,14.0119 12.9984,14.0368 13.1219,14.1101 13.2455,14.2074 13.369,14.2519 13.4926,14.285 13.6161,14.3599 13.7397,14.4164 13.8633,14.4667 13.9868,14.5262 14.1104,14.5432 14.2339,14.6115 14.3575,14.7037 14.4811,14.7615 14.6046,14.821 14.7282,14.8929 14.8517,14.9864 14.9753,15" style="fill:none;stroke:#000000;stroke-width:0.05;stroke-linecap:butt;stroke-linejoin:miter;stroke-miterlimit:4;stroke-opacity:1;stroke-dasharray:" />
<path d="M 0.0247117,10.727 0.14827,11.3299 0.271829,11.4533 0.395387,11.6462 0.518946,11.7451 0.642504,11.8168 0.766063,11.8802 0.889621,11.9657 1.01318,12.0163 1.13674,12.0559 1.2603,12.1133 1.38386,12.1476 1.50741,12.1574 1.63097,12.2137 1.75453,12.2462 1.87809,12.2813 2.00165,12.3125 2.12521,12.3376 2.24876,12.3628 2.37232,12.3781 2.49588,12.4026 2.61944,12.4251 2.743,12.4549 2.86656,12.4902 2.99012,12.525 3.11367,12.5488 3.23723,12.5766 3.36079,12.5919 3.48435,12.6021 3.60791,12.6157 3.73147,12.6442 3.85502,12.6669 3.97858,12.6744 4.10214,12.7074 4.2257,12.7314 4.34926,12.7484 4.47282,12.7886 4.59638,12.8168 4.71993,12.8265 4.84349,12.8502 4.96705,12.8673 5.09061,12.8857 5.21417,12.9011 5.33773,12.926 5.46129,12.9585 5.58484,12.9687 5.7084,12.981 5.83196,12.9861 5.95552,13.0034 6.07908,13.0284 6.20264,13.0438 6.32619,13.0668 6.44975,13.0988 6.57331,13.1215 6.69687,13.1557 6.82043,13.2192 6.94399,13.242 7.06755,13.2874 7.1911,13.3235 7.31466,13.3594 7.43822,13.3964 7.56178,13.4496 7.68534,13.4747 7.8089,13.5242 7.93245,13.5836 8.05601,13.6166 8.17957,13.6372 8.30313,13.6665 8.42669,13.6812 8.55025,13.711 8.67381,13.7448 8.79736,13.7834 8.92092,13.8077 9.04448,13.8344 9.16804,13.8529 9.2916,13.8778 9.41516,13.9276 9.53871,13.9469 9.66227,13.9828 9.78583,14.0024 9.90939,14.0208 10.0329,14.0468 10.1565,14.0708 10.2801,14.1032 10.4036,14.146 10.5272,14.1711 10.6507,14.1887 10.7743,14.2098 10.8979,14.2436 11.0214,14.2638 11.145,14.2921 11.2685,14.3046 11.3921,14.3457 11.5157,14.3621 11.6392,14.3987 11.7628,14.4156 11.8863,14.4345 12.0099,14.4631 12.1334,14.4794 12.257,14.4981 12.3806,14.5171 12.5041,14.5275 12.6277,14.5483 12.7512,14.5649 12.8748,14.599 12.9984,14.629 13.1219,14.6494 13.2455,14.6616 13.369,14.6828 13.4926,14.6932 13.6161,14.7254 13.7397,14.7359 13.8633,14.7607 13.9868,14.7885 14.1104,14.7958 14.2339,14.8216 14.3575,14.8399 14.4811,14.8491 14.6046,14.8857 14.7282,14.9298 14.8517,14.9645 14.9753,14.9991" style="fill:none;stroke:#000000;stroke-width:0.15;stroke-linecap:butt;stroke-linejoin:miter;stroke-miterlimit:4;stroke-opacity:1;stroke-dasharray:" />
<path d="M 0.0247117,5.22138 0.14827,5.92554 0.271829,6.20199 0.395387,6.46708 0.518946,6.69331 0.642504,6.78439 0.766063,6.82247 0.889621,6.92953 1.01318,7.0367 1.13674,7.10343 1.2603,7.22109 1.38386,7.32874 1.50741,7.34175 1.63097,7.45232 1.75453,7.53024 1.87809,7.60586 2.00165,7.62907 2.12521,7.69101 2.24876,7.75522 2.37232,7.82095 2.49588,7.85757 2.61944,7.88494 2.743,7.91387 2.86656,7.93806 2.99012,8.00683 3.11367,8.06208 3.23723,8.14132 3.36079,8.20949 3.48435,8.23851 3.60791,8.33489 3.73147,8.3959 3.85502,8.42855 3.97858,8.45037 4.10214,8.50849 4.2257,8.53465 4.34926,8.63389 4.47282,8.70618 4.59638,8.74992 4.71993,8.78172 4.84349,8.82578 4.96705,8.8491 5.09061,8.89396 5.21417,8.95631 5.33773,9.03051 5.46129,9.11077 5.58484,9.15374 5.7084,9.25453 5.83196,9.27061 5.95552,9.33814 6.07908,9.38345 6.20264,9.45659 6.32619,9.47965 6.44975,9.56961 6.57331,9.67 6.69687,9.74511 6.82043,9.79967 6.94399,9.85525 7.06755,9.9312 7.1911,9.98435 7.31466,10.1671 7.43822,10.2881 7.56178,10.3632 7.68534,10.4439 7.8089,10.5561 7.93245,10.6536 8.05601,10.6919 8.17957,10.8497 8.30313,10.9153 8.42669,10.9881 8.55025,11.0274 8.67381,11.1645 8.79736,11.2246 8.92092,11.2618 9.04448,11.2938 9.16804,11.4432 9.2916,11.6226 9.41516,11.6781 9.53871,11.7357 9.66227,11.8121 9.78583,11.8739 9.90939,11.9647 10.0329,12.0722 10.1565,12.1839 10.2801,12.2389 10.4036,12.3541 10.5272,12.4426 10.6507,12.5352 10.7743,12.5889 10.8979,12.6525 11.0214,12.6925 11.145,12.8153 11.2685,12.8788 11.3921,12.9417 11.5157,13.0196 11.6392,13.0762 11.7628,13.185 11.8863,13.2584 12.0099,13.3005 12.1334,13.359 12.257,13.4236 12.3806,13.5162 12.5041,13.6412 12.6277,13.6847 12.7512,13.7794 12.8748,13.8431 12.9984,13.8702 13.1219,13.9919 13.2455,14.0582 13.369,14.1497 13.4926,14.2201 13.6161,14.2965 13.7397,14.38 13.8633,14.4417 13.9868,14.4958 14.1104,14.5314 14.2339,14.6065 14.3575,14.6236 14.4811,14.6852 14.6046,14.7721 14.7282,14.902 14.8517,14.9969 14.9753,15" style="fill:none;stroke:#000000;stroke-width:0.15;stroke-linecap:butt;stroke-linejoin:miter;stroke-miterlimit:4;stroke-opacity:1;stroke-dasharray:" />
<path d="M 0.0247117,7.27867 0.14827,7.87025 0.271829,8.37124 0.395387,8.59987 0.518946,8.75533 0.642504,8.83892 0.766063,8.90214 0.889621,8.94517 1.01318,9.03709 1.13674,9.08299 1.2603,9.15369 1.38386,9.20499 1.50741,9.23089 1.63097,9.33116 1.75453,9.43092 1.87809,9.44843 2.00165,9.48056 2.12521,9.52325 2.24876,9.55489 2.37232,9.60299 2.49588,9.71142 2.61944,9.72757 2.743,9.77307 2.86656,9.89149 2.99012,9.93412 3.11367,9.97949 3.23723,10.0258 3.36079,10.0631 3.48435,10.1161 3.60791,10.1739 3.73147,10.2503 3.85502,10.2568 3.97858,10.2971 4.10214,10.3522 4.2257,10.3982 4.34926,10.4349 4.47282,10.4664 4.59638,10.5067 4.71993,10.5161 4.84349,10.529 4.96705,10.5435 5.09061,10.6046 5.21417,10.6675 5.33773,10.7097 5.46129,10.7484 5.58484,10.77 5.7084,10.7993 5.83196,10.8955 5.95552,10.9196 6.07908,10.9527 6.20264,11.0358 6.32619,11.1004 6.44975,11.146 6.57331,11.1978 6.69687,11.2253 6.82043,11.2788 6.94399,11.3039 7.06755,11.3735 7.1911,11.4607 7.31466,11.5575 7.43822,11.6111 7.56178,11.7591 7.68534,11.8015 7.8089,11.8437 7.93245,11.9088 8.05601,11.9539 8.17957,12.0013 8.30313,12.0631 8.42669,12.1124 8.55025,12.1694 8.67381,12.2138 8.79736,12.2535 8.92092,12.3407 9.04448,12.4369 9.16804,12.518 9.2916,12.5768 9.41516,12.659 9.53871,12.7353 9.66227,12.7812 9.78583,12.839 9.90939,12.8806 10.0329,12.9396 10.1565,12.9963 10.2801,13.0444 10.4036,13.0929 10.5272,13.1958 10.6507,13.2373 10.7743,13.2736 10.8979,13.3588 11.0214,13.4304 11.145,13.5093 11.2685,13.5978 11.3921,13.6111 11.5157,13.6688 11.6392,13.7375 11.7628,13.7897 11.8863,13.8439 12.0099,13.8849 12.1334,13.9155 12.257,13.947 12.3806,14.0052 12.5041,14.0611 12.6277,14.0993 12.7512,14.2007 12.8748,14.2264 12.9984,14.2896 13.1219,14.3153 13.2455,14.4154 13.369,14.4462 13.4926,14.4779 13.6161,14.5255 13.7397,14.571 13.8633,14.6046 13.9868,14.6411 14.1104,14.704 14.2339,14.7387 14.3575,14.7911 14.4811,14.8554 14.6046,14.9277 14.7282,14.9968 14.8517,14.9999 14.9753,15" style="fill:none;stroke:#000000;stroke-width:0.05;stroke-linecap:butt;stroke-linejoin:miter;stroke-miterlimit:4;stroke-opacity:1;stroke-dasharray:" />
<path d="M 0.0247117,1.81691 0.14827,2.80405 0.271829,3.00111 0.395387,3.30717 0.518946,3.47768 0.642504,3.52385 0.766063,3.60674 0.889621,3.7073 1.01318,3.79774 1.13674,3.88903 1.2603,3.95604 1.38386,3.99961 1.50741,4.09173 1.63097,4.15039 1.75453,4.22093 1.87809,4.34659 2.00165,4.38831 2.12521,4.43563 2.24876,4.49779 2.37232,4.58562 2.49588,4.69705 2.61944,4.73301 2.743,4.76101 2.86656,4.84309 2.99012,4.87507 3.11367,4.92093 3.23723,4.98531 3.36079,5.02185 3.48435,5.05941 3.60791,5.12369 3.73147,5.15479 3.85502,5.21575 3.97858,5.28075 4.10214,5.34552 4.2257,5.38717 4.34926,5.43174 4.47282,5.45061 4.59638,5.50676 4.71993,5.58604 4.84349,5.66281 4.96705,5.74419 5.09061,5.82356 5.21417,5.89391 5.33773,5.94612 5.46129,6.01172 5.58484,6.13441 5.7084,6.18484 5.83196,6.23451 5.95552,6.28665 6.07908,6.4002 6.20264,6.46585 6.32619,6.51909 6.44975,6.63019 6.57331,6.68715 6.69687,6.73 6.82043,6.79942 6.94399,6.91685 7.06755,7.03944 7.1911,7.1871 7.31466,7.24529 7.43822,7.43341 7.56178,7.50061 7.68534,7.55448 7.8089,7.72187 7.93245,7.97072 8.05601,8.08368 8.17957,8.227 8.30313,8.28089 8.42669,8.41971 8.55025,8.50503 8.67381,8.58385 8.79736,8.62715 8.92092,8.7546 9.04448,8.93517 9.16804,9.04145 9.2916,9.21893 9.41516,9.40006 9.53871,9.47804 9.66227,9.52523 9.78583,9.56701 9.90939,9.74304 10.0329,9.92543 10.1565,10.044 10.2801,10.2181 10.4036,10.4142 10.5272,10.5386 10.6507,10.7095 10.7743,10.8502 10.8979,10.9322 11.0214,11.1377 11.145,11.2113 11.2685,11.3091 11.3921,11.4837 11.5157,11.6594 11.6392,11.8422 11.7628,11.885 11.8863,12.1095 12.0099,12.1509 12.1334,12.2376 12.257,12.3634 12.3806,12.4272 12.5041,12.4808 12.6277,12.5663 12.7512,12.717 12.8748,12.8014 12.9984,12.8815 13.1219,12.986 13.2455,13.1375 13.369,13.2279 13.4926,13.2974 13.6161,13.4627 13.7397,13.5742 13.8633,13.6655 13.9868,13.827 14.1104,13.8927 14.2339,14.0074 14.3575,14.0895 14.4811,14.1492 14.6046,14.4022 14.7282,14.5537 14.8517,14.7651 14.9753,14.9927" style="fill:none;stroke:#000000;stroke-width:0.05;stroke-linecap:butt;stroke-linejoin:miter;stroke-miterlimit:4;stroke-opacity:1;stroke-dasharray:" />
</g>
<text x="52" y="50" style="font-size:10px;fill:black;fill-opacity:1;stroke:none;font-family:Sans">B</text>

  <circle
     cx="163.334"
     cy="122.298"
     r="1.19759"
     id="circle4" />
  <text
     x="150.39769"
     y="127.57812"
     style="font-size:6px;fill:#000000;fill-opacity:1;stroke:none;font-family:Sans"
     id="text6">Echinacea</text>
  <circle
     cx="148.446"
     cy="109.545"
     r="0.805801"
     id="circle8" />
  <text
     x="128.45148"
     y="107.497"
     style="font-size:6px;fill:#000000;fill-opacity:1;stroke:none;font-family:Sans"
     id="text10">Matricaria</text>
  <circle
     cx="168.386"
     cy="111.654"
     r="1.29968"
     id="circle12" />
  <text
     x="167.59398"
     y="110.06996"
     style="font-size:6px;fill:#000000;fill-opacity:1;stroke:none;font-family:Sans"
     id="text14">Calendula</text>
  <circle
     cx="132.495"
     cy="127.248"
     r="0.897874"
     id="circle16" />
  <text
     x="115.86261"
     y="132.00011"
     style="font-size:6px;fill:#000000;fill-opacity:1;stroke:none;font-family:Sans"
     id="text18">Potentilla</text>
  <circle
     cx="175.255"
     cy="122.462"
     r="1.26153"
     id="circle20" />
  <text
     x="180"
     y="122"
     style="font-size:6px;fill:#000000;fill-opacity:1;stroke:none;font-family:Sans"
     id="text22">Rhodiola</text>
  <circle
     cx="165.078"
     cy="86.7879"
     r="1.29429"
     id="circle24" />
  <text
     x="165.60602"
     y="85.203865"
     style="font-size:6px;fill:#000000;fill-opacity:1;stroke:none;font-family:Sans"
     id="text26">Allium</text>
  <circle
     cx="173.191"
     cy="164.487"
     r="0.962329"
     id="circle28" />
  <text
     x="174.24702"
     y="162.11095"
     style="font-size:6px;fill:#000000;fill-opacity:1;stroke:none;font-family:Sans"
     id="text30">Mentha</text>
  <circle
     cx="139.031"
     cy="135.141"
     r="1.00735"
     id="circle32" />
  <text
     x="139.82303"
     y="140.15712"
     style="font-size:6px;fill:#000000;fill-opacity:1;stroke:none;font-family:Sans"
     id="text34">Coriandrum</text>
  <circle
     cx="143.455"
     cy="122.296"
     r="0.582824"
     id="circle36" />
  <text
     x="124.71056"
     y="120.44795"
     style="font-size:6px;fill:#000000;fill-opacity:1;stroke:none;font-family:Sans"
     id="text38">Passiflora</text>
  <circle
     cx="169.32"
     cy="170.513"
     r="1.14989"
     id="circle40" />
  <text
     x="170.11201"
     y="175.79312"
     style="font-size:6px;fill:#000000;fill-opacity:1;stroke:none;font-family:Sans"
     id="text42">Thuja</text>
  <path
     style="fill:none;stroke:#000000;stroke-width:0.5;stroke-linecap:butt;stroke-linejoin:miter;stroke-opacity:1;marker-start:url(#Arrow1Mstart);marker-end:url(#Arrow1Mend);stroke-miterlimit:4;stroke-dasharray:none"
     d="m 190,72.362183 50,89.999997"
     id="path3027"
     inkscape:connector-curvature="0"
     sodipodi:nodetypes="cc" />
  <path
     style="fill:none;stroke:#000000;stroke-width:0.5;stroke-linecap:butt;stroke-linejoin:miter;stroke-opacity:1;marker-start:url(#Arrow1Mstart);marker-end:url(#Arrow1Mend);stroke-miterlimit:4;stroke-dasharray:none"
     d="m 90,162.36218 50,-90"
     id="path3027-7"
     inkscape:connector-curvature="0"
     sodipodi:nodetypes="cc" />
  <path
     style="fill:none;stroke:#000000;stroke-width:0.5;stroke-linecap:butt;stroke-linejoin:miter;stroke-opacity:1;marker-start:url(#Arrow1Mstart);marker-end:url(#Arrow1Mend);stroke-miterlimit:4;stroke-dasharray:none"
     d="m 100,192.36218 130,0"
     id="path3027-7-8"
     inkscape:connector-curvature="0"
     sodipodi:nodetypes="cc" />
  <text
     x="243.27994"
     y="187.12117"
     style="font-size:6px;font-style:normal;font-variant:normal;font-weight:normal;font-stretch:normal;text-align:start;line-height:125%;writing-mode:lr;text-anchor:start;fill:#000000;fill-opacity:1;stroke:none;font-family:Sans;-inkscape-font-specification:Sans"
     id="text34-4"
     sodipodi:linespacing="125%">
    <tspan
       sodipodi:role="line"
       id="tspan3034">Negative</tspan>
    <tspan
       sodipodi:role="line"
       id="tspan3036">symptoms</tspan>
  </text>
  <text
     x="61.669102"
     y="185.81752"
     style="font-size:6px;font-style:normal;font-variant:normal;font-weight:normal;font-stretch:normal;text-align:start;line-height:125%;writing-mode:lr;text-anchor:start;fill:#000000;fill-opacity:1;stroke:none;font-family:Sans;-inkscape-font-specification:Sans"
     id="text34-4-8"
     sodipodi:linespacing="125%">
    <tspan
       sodipodi:role="line"
       id="tspan3038">Positive</tspan>
    <tspan
       sodipodi:role="line"
       id="tspan3040">symptoms</tspan>
  </text>
  <text
     x="150.11116"
     y="51.966404"
     style="font-size:6px;font-style:normal;font-variant:normal;font-weight:normal;font-stretch:normal;text-align:start;line-height:125%;writing-mode:lr-tb;text-anchor:start;fill:#000000;fill-opacity:1;stroke:none;font-family:Sans;-inkscape-font-specification:Sans"
     id="text34-4-8-1"
     sodipodi:linespacing="125%">
    <tspan
       sodipodi:role="line"
       id="tspan4561"
       x="150.11116"
       y="51.966404">Side</tspan>
    <tspan
       sodipodi:role="line"
       id="tspan4563"
       x="150.11116"
       y="56.966404">complications</tspan>
  </text>
</svg>
