<?xml version="1.0" encoding="UTF-8" standalone="no"?>
<!-- Created with matplotlib (http://matplotlib.org/) -->

<svg
   xmlns:dc="http://purl.org/dc/elements/1.1/"
   xmlns:cc="http://creativecommons.org/ns#"
   xmlns:rdf="http://www.w3.org/1999/02/22-rdf-syntax-ns#"
   xmlns:svg="http://www.w3.org/2000/svg"
   xmlns="http://www.w3.org/2000/svg"
   xmlns:sodipodi="http://sodipodi.sourceforge.net/DTD/sodipodi-0.dtd"
   xmlns:inkscape="http://www.inkscape.org/namespaces/inkscape"
   height="1440pt"
   version="1.1"
   viewBox="0 0 1440 1440"
   width="1440pt"
   id="svg2"
   inkscape:version="0.48.3.1 r9886"
   sodipodi:docname="fig_accel_aut.svg">
  <metadata
     id="metadata1416">
    <rdf:RDF>
      <cc:Work
         rdf:about="">
        <dc:format>image/svg+xml</dc:format>
        <dc:type
           rdf:resource="http://purl.org/dc/dcmitype/StillImage" />
        <dc:title></dc:title>
      </cc:Work>
    </rdf:RDF>
  </metadata>
  <sodipodi:namedview
     pagecolor="#ffffff"
     bordercolor="#666666"
     borderopacity="1"
     objecttolerance="10"
     gridtolerance="10"
     guidetolerance="10"
     inkscape:pageopacity="0"
     inkscape:pageshadow="2"
     inkscape:window-width="959"
     inkscape:window-height="576"
     id="namedview1414"
     showgrid="false"
     inkscape:zoom="0.85666535"
     inkscape:cx="513.7563"
     inkscape:cy="710.21739"
     inkscape:window-x="65"
     inkscape:window-y="24"
     inkscape:window-maximized="1"
     inkscape:current-layer="svg2" />
  <defs
     id="defs4">
    <style
       type="text/css"
       id="style6">
*{stroke-linecap:butt;stroke-linejoin:round;}
  </style>
  </defs>
  <g
     id="PathCollection_9"
     style="stroke-linecap:butt;stroke-linejoin:round">
    <g
       clip-path="url(#p7a421142a7)"
       id="g743"
       style="stroke-linecap:butt;stroke-linejoin:round">
      <path
         style="fill:#6666aa;stroke-linecap:butt;stroke-linejoin:round"
         inkscape:connector-curvature="0"
         id="use745"
         d="m 279.42568,771.72729 3.33333,0 0,-3.33333 3.33334,0 0,-3.33333 -3.33334,0 0,-3.33334 -3.33333,0 0,3.33334 -3.33333,0 0,3.33333 3.33333,0 z" />
      <path
         style="fill:#6666aa;stroke-linecap:butt;stroke-linejoin:round"
         inkscape:connector-curvature="0"
         id="use747"
         d="m 285.60021,858.255 3.33333,0 0,-3.33333 3.33334,0 0,-3.33333 -3.33334,0 0,-3.33334 -3.33333,0 0,3.33334 -3.33333,0 0,3.33333 3.33333,0 z" />
      <path
         style="fill:#6666aa;stroke-linecap:butt;stroke-linejoin:round"
         inkscape:connector-curvature="0"
         id="use749"
         d="m 302.56035,785.66388 3.33334,0 0,-3.33333 3.33333,0 0,-3.33334 -3.33333,0 0,-3.33333 -3.33334,0 0,3.33333 -3.33333,0 0,3.33334 3.33333,0 z" />
      <path
         style="fill:#6666aa;stroke-linecap:butt;stroke-linejoin:round"
         inkscape:connector-curvature="0"
         id="use751"
         d="m 315.06463,811.84436 3.33333,0 0,-3.33333 3.33333,0 0,-3.33334 -3.33333,0 0,-3.33333 -3.33333,0 0,3.33333 -3.33334,0 0,3.33334 3.33334,0 z" />
      <path
         style="fill:#6666aa;stroke-linecap:butt;stroke-linejoin:round"
         inkscape:connector-curvature="0"
         id="use753"
         d="m 342.48781,826.5094 3.33334,0 0,-3.33333 3.33333,0 0,-3.33334 -3.33333,0 0,-3.33333 -3.33334,0 0,3.33333 -3.33333,0 0,3.33334 3.33333,0 z" />
      <path
         style="fill:#6666aa;stroke-linecap:butt;stroke-linejoin:round"
         inkscape:connector-curvature="0"
         id="use755"
         d="m 385.71962,838.34711 3.33334,0 0,-3.33334 3.33333,0 0,-3.33333 -3.33333,0 0,-3.33333 -3.33334,0 0,3.33333 -3.33333,0 0,3.33333 3.33333,0 z" />
      <path
         style="fill:#6666aa;stroke-linecap:butt;stroke-linejoin:round"
         inkscape:connector-curvature="0"
         id="use757"
         d="m 391.8637,823.86084 3.33333,0 0,-3.33333 3.33333,0 0,-3.33334 -3.33333,0 0,-3.33333 -3.33333,0 0,3.33333 -3.33334,0 0,3.33334 3.33334,0 z" />
      <path
         style="fill:#6666aa;stroke-linecap:butt;stroke-linejoin:round"
         inkscape:connector-curvature="0"
         id="use759"
         d="m 567.44295,892.23926 3.33334,0 0,-3.33334 3.33333,0 0,-3.33333 -3.33333,0 0,-3.33333 -3.33334,0 0,3.33333 -3.33333,0 0,3.33333 3.33333,0 z" />
      <path
         style="fill:#6666aa;stroke-linecap:butt;stroke-linejoin:round"
         inkscape:connector-curvature="0"
         id="use761"
         d="m 570.18734,832.43304 3.33333,0 0,-3.33333 3.33333,0 0,-3.33333 -3.33333,0 0,-3.33334 -3.33333,0 0,3.33334 -3.33334,0 0,3.33333 3.33334,0 z" />
      <path
         style="fill:#6666aa;stroke-linecap:butt;stroke-linejoin:round"
         inkscape:connector-curvature="0"
         id="use763"
         d="m 570.32021,830.01123 3.33333,0 0,-3.33333 3.33334,0 0,-3.33334 -3.33334,0 0,-3.33333 -3.33333,0 0,3.33333 -3.33333,0 0,3.33334 3.33333,0 z" />
      <path
         style="fill:#6666aa;stroke-linecap:butt;stroke-linejoin:round"
         inkscape:connector-curvature="0"
         id="use765"
         d="m 570.93703,845.81122 3.33334,0 0,-3.33333 3.33333,0 0,-3.33334 -3.33333,0 0,-3.33333 -3.33334,0 0,3.33333 -3.33333,0 0,3.33334 3.33333,0 z" />
      <path
         style="fill:#6666aa;stroke-linecap:butt;stroke-linejoin:round"
         inkscape:connector-curvature="0"
         id="use767"
         d="m 571.74465,840.60583 3.33333,0 0,-3.33333 3.33334,0 0,-3.33333 -3.33334,0 0,-3.33334 -3.33333,0 0,3.33334 -3.33333,0 0,3.33333 3.33333,0 z" />
      <path
         style="fill:#6666aa;stroke-linecap:butt;stroke-linejoin:round"
         inkscape:connector-curvature="0"
         id="use769"
         d="m 572.80788,821.75885 3.33334,0 0,-3.33333 3.33333,0 0,-3.33334 -3.33333,0 0,-3.33333 -3.33334,0 0,3.33333 -3.33333,0 0,3.33334 3.33333,0 z" />
    </g>
  </g>
  <g
     id="PathCollection_10"
     style="stroke-linecap:butt;stroke-linejoin:round">
    <g
       clip-path="url(#p7a421142a7)"
       id="g772"
       style="stroke-linecap:butt;stroke-linejoin:round">
      <path
         style="fill:#2b6b42;stroke-linecap:butt;stroke-linejoin:round"
         inkscape:connector-curvature="0"
         id="use774"
         d="m 279.42568,771.72729 3.33333,0 0,-3.33333 3.33334,0 0,-3.33333 -3.33334,0 0,-3.33334 -3.33333,0 0,3.33334 -3.33333,0 0,3.33333 3.33333,0 z" />
      <path
         style="fill:#2b6b42;stroke-linecap:butt;stroke-linejoin:round"
         inkscape:connector-curvature="0"
         id="use776"
         d="m 285.60021,858.255 3.33333,0 0,-3.33333 3.33334,0 0,-3.33333 -3.33334,0 0,-3.33334 -3.33333,0 0,3.33334 -3.33333,0 0,3.33333 3.33333,0 z" />
      <path
         style="fill:#2b6b42;stroke-linecap:butt;stroke-linejoin:round"
         inkscape:connector-curvature="0"
         id="use778"
         d="m 308.2408,907.08704 3.33334,0 0,-3.33334 3.33333,0 0,-3.33333 -3.33333,0 0,-3.33333 -3.33334,0 0,3.33333 -3.33333,0 0,3.33333 3.33333,0 z" />
      <path
         style="fill:#2b6b42;stroke-linecap:butt;stroke-linejoin:round"
         inkscape:connector-curvature="0"
         id="use780"
         d="m 323.13027,817.84149 3.33333,0 0,-3.33333 3.33334,0 0,-3.33334 -3.33334,0 0,-3.33333 -3.33333,0 0,3.33333 -3.33333,0 0,3.33334 3.33333,0 z" />
      <path
         style="fill:#2b6b42;stroke-linecap:butt;stroke-linejoin:round"
         inkscape:connector-curvature="0"
         id="use782"
         d="m 372.26064,818.45392 3.33333,0 0,-3.33333 3.33334,0 0,-3.33334 -3.33334,0 0,-3.33333 -3.33333,0 0,3.33333 -3.33333,0 0,3.33334 3.33333,0 z" />
      <path
         style="fill:#2b6b42;stroke-linecap:butt;stroke-linejoin:round"
         inkscape:connector-curvature="0"
         id="use784"
         d="m 551.39895,870.81482 3.33333,0 0,-3.33333 3.33333,0 0,-3.33334 -3.33333,0 0,-3.33333 -3.33333,0 0,3.33333 -3.33334,0 0,3.33334 3.33334,0 z" />
      <path
         style="fill:#2b6b42;stroke-linecap:butt;stroke-linejoin:round"
         inkscape:connector-curvature="0"
         id="use786"
         d="m 553.38747,856.33661 3.33334,0 0,-3.33333 3.33333,0 0,-3.33334 -3.33333,0 0,-3.33333 -3.33334,0 0,3.33333 -3.33333,0 0,3.33334 3.33333,0 z" />
      <path
         style="fill:#2b6b42;stroke-linecap:butt;stroke-linejoin:round"
         inkscape:connector-curvature="0"
         id="use788"
         d="m 555.43483,835.99841 3.33334,0 0,-3.33333 3.33333,0 0,-3.33333 -3.33333,0 0,-3.33334 -3.33334,0 0,3.33334 -3.33333,0 0,3.33333 3.33333,0 z" />
      <path
         style="fill:#2b6b42;stroke-linecap:butt;stroke-linejoin:round"
         inkscape:connector-curvature="0"
         id="use790"
         d="m 555.96138,826.44403 3.33334,0 0,-3.33333 3.33333,0 0,-3.33334 -3.33333,0 0,-3.33333 -3.33334,0 0,3.33333 -3.33333,0 0,3.33334 3.33333,0 z" />
    </g>
  </g>
  <g
     id="PathCollection_11"
     style="stroke-linecap:butt;stroke-linejoin:round">
    <g
       clip-path="url(#p7a421142a7)"
       id="g793"
       style="stroke-linecap:butt;stroke-linejoin:round">
      <path
         style="fill:#c45555;stroke-linecap:butt;stroke-linejoin:round"
         inkscape:connector-curvature="0"
         id="use795"
         d="m 283.65737,982.01477 3.33333,0 0,-3.33333 3.33334,0 0,-3.33334 -3.33334,0 0,-3.33333 -3.33333,0 0,3.33333 -3.33333,0 0,3.33334 3.33333,0 z" />
      <path
         style="fill:#c45555;stroke-linecap:butt;stroke-linejoin:round"
         inkscape:connector-curvature="0"
         id="use797"
         d="m 288.78893,818.10571 3.33333,0 0,-3.33333 3.33334,0 0,-3.33333 -3.33334,0 0,-3.33334 -3.33333,0 0,3.33334 -3.33333,0 0,3.33333 3.33333,0 z" />
      <path
         style="fill:#c45555;stroke-linecap:butt;stroke-linejoin:round"
         inkscape:connector-curvature="0"
         id="use799"
         d="m 292.64724,818.6618 3.33333,0 0,-3.33333 3.33333,0 0,-3.33333 -3.33333,0 0,-3.33334 -3.33333,0 0,3.33334 -3.33334,0 0,3.33333 3.33334,0 z" />
      <path
         style="fill:#c45555;stroke-linecap:butt;stroke-linejoin:round"
         inkscape:connector-curvature="0"
         id="use801"
         d="m 298.33681,816.55298 3.33334,0 0,-3.33333 3.33333,0 0,-3.33334 -3.33333,0 0,-3.33333 -3.33334,0 0,3.33333 -3.33333,0 0,3.33334 3.33333,0 z" />
      <path
         style="fill:#c45555;stroke-linecap:butt;stroke-linejoin:round"
         inkscape:connector-curvature="0"
         id="use803"
         d="m 310.22222,813.10052 3.33333,0 0,-3.33333 3.33334,0 0,-3.33333 -3.33334,0 0,-3.33334 -3.33333,0 0,3.33334 -3.33333,0 0,3.33333 3.33333,0 z" />
      <path
         style="fill:#c45555;stroke-linecap:butt;stroke-linejoin:round"
         inkscape:connector-curvature="0"
         id="use805"
         d="m 325.30242,815.1543 3.33333,0 0,-3.33334 3.33334,0 0,-3.33333 -3.33334,0 0,-3.33333 -3.33333,0 0,3.33333 -3.33333,0 0,3.33333 3.33333,0 z" />
      <path
         style="fill:#c45555;stroke-linecap:butt;stroke-linejoin:round"
         inkscape:connector-curvature="0"
         id="use807"
         d="m 373.43752,818.41364 3.33333,0 0,-3.33334 3.33334,0 0,-3.33333 -3.33334,0 0,-3.33333 -3.33333,0 0,3.33333 -3.33333,0 0,3.33333 3.33333,0 z" />
      <path
         style="fill:#c45555;stroke-linecap:butt;stroke-linejoin:round"
         inkscape:connector-curvature="0"
         id="use809"
         d="m 539.39791,919.01819 3.33333,0 0,-3.33333 3.33334,0 0,-3.33334 -3.33334,0 0,-3.33333 -3.33333,0 0,3.33333 -3.33333,0 0,3.33334 3.33333,0 z" />
      <path
         style="fill:#c45555;stroke-linecap:butt;stroke-linejoin:round"
         inkscape:connector-curvature="0"
         id="use811"
         d="m 541.35903,906.15662 3.33333,0 0,-3.33334 3.33334,0 0,-3.33333 -3.33334,0 0,-3.33333 -3.33333,0 0,3.33333 -3.33333,0 0,3.33333 3.33333,0 z" />
      <path
         style="fill:#c45555;stroke-linecap:butt;stroke-linejoin:round"
         inkscape:connector-curvature="0"
         id="use813"
         d="m 543.02187,902.22223 3.33333,0 0,-3.33333 3.33334,0 0,-3.33334 -3.33334,0 0,-3.33333 -3.33333,0 0,3.33333 -3.33333,0 0,3.33334 3.33333,0 z" />
      <path
         style="fill:#c45555;stroke-linecap:butt;stroke-linejoin:round"
         inkscape:connector-curvature="0"
         id="use815"
         d="m 544.78408,900.02185 3.33333,0 0,-3.33333 3.33333,0 0,-3.33334 -3.33333,0 0,-3.33333 -3.33333,0 0,3.33333 -3.33334,0 0,3.33334 3.33334,0 z" />
      <path
         style="fill:#c45555;stroke-linecap:butt;stroke-linejoin:round"
         inkscape:connector-curvature="0"
         id="use817"
         d="m 547.55178,878.10565 3.33333,0 0,-3.33333 3.33333,0 0,-3.33334 -3.33333,0 0,-3.33333 -3.33333,0 0,3.33333 -3.33334,0 0,3.33334 3.33334,0 z" />
      <path
         style="fill:#c45555;stroke-linecap:butt;stroke-linejoin:round"
         inkscape:connector-curvature="0"
         id="use819"
         d="m 550.14498,856.55829 3.33333,0 0,-3.33333 3.33334,0 0,-3.33334 -3.33334,0 0,-3.33333 -3.33333,0 0,3.33333 -3.33333,0 0,3.33334 3.33333,0 z" />
      <path
         style="fill:#c45555;stroke-linecap:butt;stroke-linejoin:round"
         inkscape:connector-curvature="0"
         id="use821"
         d="m 552.21871,836.74829 3.33333,0 0,-3.33333 3.33334,0 0,-3.33334 -3.33334,0 0,-3.33333 -3.33333,0 0,3.33333 -3.33333,0 0,3.33334 3.33333,0 z" />
      <path
         style="fill:#c45555;stroke-linecap:butt;stroke-linejoin:round"
         inkscape:connector-curvature="0"
         id="use823"
         d="m 552.84975,825.63953 3.33334,0 0,-3.33334 3.33333,0 0,-3.33333 -3.33333,0 0,-3.33333 -3.33334,0 0,3.33333 -3.33333,0 0,3.33333 3.33333,0 z" />
    </g>
  </g>
  <g
     id="PathCollection_12"
     style="stroke-linecap:butt;stroke-linejoin:round">
    <g
       clip-path="url(#p7a421142a7)"
       id="g826"
       style="stroke-linecap:butt;stroke-linejoin:round">
      <path
         style="fill:#806046;stroke-linecap:butt;stroke-linejoin:round"
         inkscape:connector-curvature="0"
         id="use828"
         d="m 279.42568,771.72729 3.33333,0 0,-3.33333 3.33334,0 0,-3.33333 -3.33334,0 0,-3.33334 -3.33333,0 0,3.33334 -3.33333,0 0,3.33333 3.33333,0 z" />
      <path
         style="fill:#806046;stroke-linecap:butt;stroke-linejoin:round"
         inkscape:connector-curvature="0"
         id="use830"
         d="m 285.43483,803.44446 3.33334,0 0,-3.33333 3.33333,0 0,-3.33334 -3.33333,0 0,-3.33333 -3.33334,0 0,3.33333 -3.33333,0 0,3.33334 3.33333,0 z" />
      <path
         style="fill:#806046;stroke-linecap:butt;stroke-linejoin:round"
         inkscape:connector-curvature="0"
         id="use832"
         d="m 295.07808,808.60797 3.33334,0 0,-3.33333 3.33333,0 0,-3.33334 -3.33333,0 0,-3.33333 -3.33334,0 0,3.33333 -3.33333,0 0,3.33334 3.33333,0 z" />
      <path
         style="fill:#806046;stroke-linecap:butt;stroke-linejoin:round"
         inkscape:connector-curvature="0"
         id="use834"
         d="m 332.2419,807.5332 3.33334,0 0,-3.33333 3.33333,0 0,-3.33333 -3.33333,0 0,-3.33334 -3.33334,0 0,3.33334 -3.33333,0 0,3.33333 3.33333,0 z" />
      <path
         style="fill:#806046;stroke-linecap:butt;stroke-linejoin:round"
         inkscape:connector-curvature="0"
         id="use836"
         d="m 342.56695,829.65723 3.33333,0 0,-3.33334 3.33333,0 0,-3.33333 -3.33333,0 0,-3.33333 -3.33333,0 0,3.33333 -3.33334,0 0,3.33333 3.33334,0 z" />
      <path
         style="fill:#806046;stroke-linecap:butt;stroke-linejoin:round"
         inkscape:connector-curvature="0"
         id="use838"
         d="m 349.89702,832.59412 3.33334,0 0,-3.33334 3.33333,0 0,-3.33333 -3.33333,0 0,-3.33333 -3.33334,0 0,3.33333 -3.33333,0 0,3.33333 3.33333,0 z" />
      <path
         style="fill:#806046;stroke-linecap:butt;stroke-linejoin:round"
         inkscape:connector-curvature="0"
         id="use840"
         d="m 364.21734,819.37769 3.33333,0 0,-3.33334 3.33333,0 0,-3.33333 -3.33333,0 0,-3.33333 -3.33333,0 0,3.33333 -3.33334,0 0,3.33333 3.33334,0 z" />
      <path
         style="fill:#806046;stroke-linecap:butt;stroke-linejoin:round"
         inkscape:connector-curvature="0"
         id="use842"
         d="m 404.8174,830.44324 3.33334,0 0,-3.33334 3.33333,0 0,-3.33333 -3.33333,0 0,-3.33333 -3.33334,0 0,3.33333 -3.33333,0 0,3.33333 3.33333,0 z" />
      <path
         style="fill:#806046;stroke-linecap:butt;stroke-linejoin:round"
         inkscape:connector-curvature="0"
         id="use844"
         d="m 405.03859,831.99744 3.33334,0 0,-3.33334 3.33333,0 0,-3.33333 -3.33333,0 0,-3.33333 -3.33334,0 0,3.33333 -3.33333,0 0,3.33333 3.33333,0 z" />
      <path
         style="fill:#806046;stroke-linecap:butt;stroke-linejoin:round"
         inkscape:connector-curvature="0"
         id="use846"
         d="m 409.53707,814.52887 3.33333,0 0,-3.33333 3.33334,0 0,-3.33334 -3.33334,0 0,-3.33333 -3.33333,0 0,3.33333 -3.33333,0 0,3.33334 3.33333,0 z" />
      <path
         style="fill:#806046;stroke-linecap:butt;stroke-linejoin:round"
         inkscape:connector-curvature="0"
         id="use848"
         d="m 572.00637,866.56696 3.33333,0 0,-3.33334 3.33333,0 0,-3.33333 -3.33333,0 0,-3.33333 -3.33333,0 0,3.33333 -3.33334,0 0,3.33333 3.33334,0 z" />
      <path
         style="fill:#806046;stroke-linecap:butt;stroke-linejoin:round"
         inkscape:connector-curvature="0"
         id="use850"
         d="m 573.37807,863.96692 3.33334,0 0,-3.33333 3.33333,0 0,-3.33334 -3.33333,0 0,-3.33333 -3.33334,0 0,3.33333 -3.33333,0 0,3.33334 3.33333,0 z" />
      <path
         style="fill:#806046;stroke-linecap:butt;stroke-linejoin:round"
         inkscape:connector-curvature="0"
         id="use852"
         d="m 573.39834,836.59467 3.33333,0 0,-3.33334 3.33333,0 0,-3.33333 -3.33333,0 0,-3.33333 -3.33333,0 0,3.33333 -3.33334,0 0,3.33333 3.33334,0 z" />
      <path
         style="fill:#806046;stroke-linecap:butt;stroke-linejoin:round"
         inkscape:connector-curvature="0"
         id="use854"
         d="m 573.71792,833.91553 3.33333,0 0,-3.33334 3.33333,0 0,-3.33333 -3.33333,0 0,-3.33333 -3.33333,0 0,3.33333 -3.33334,0 0,3.33333 3.33334,0 z" />
      <path
         style="fill:#806046;stroke-linecap:butt;stroke-linejoin:round"
         inkscape:connector-curvature="0"
         id="use856"
         d="m 574.04763,828.51721 3.33333,0 0,-3.33333 3.33333,0 0,-3.33334 -3.33333,0 0,-3.33333 -3.33333,0 0,3.33333 -3.33334,0 0,3.33334 3.33334,0 z" />
      <path
         style="fill:#806046;stroke-linecap:butt;stroke-linejoin:round"
         inkscape:connector-curvature="0"
         id="use858"
         d="m 574.0497,825.85358 3.33334,0 0,-3.33334 3.33333,0 0,-3.33333 -3.33333,0 0,-3.33333 -3.33334,0 0,3.33333 -3.33333,0 0,3.33333 3.33333,0 z" />
      <path
         style="fill:#806046;stroke-linecap:butt;stroke-linejoin:round"
         inkscape:connector-curvature="0"
         id="use860"
         d="m 576.64895,831.97888 3.33333,0 0,-3.33333 3.33333,0 0,-3.33334 -3.33333,0 0,-3.33333 -3.33333,0 0,3.33333 -3.33334,0 0,3.33334 3.33334,0 z" />
      <path
         style="fill:#806046;stroke-linecap:butt;stroke-linejoin:round"
         inkscape:connector-curvature="0"
         id="use862"
         d="m 576.74434,830.46497 3.33334,0 0,-3.33334 3.33333,0 0,-3.33333 -3.33333,0 0,-3.33333 -3.33334,0 0,3.33333 -3.33333,0 0,3.33333 3.33333,0 z" />
    </g>
  </g>
  <g
     id="matplotlib.axis_6"
     style="stroke-linecap:butt;stroke-linejoin:round">
    <g
       id="ytick_13"
       style="stroke-linecap:butt;stroke-linejoin:round">
      <g
         id="line2d_47"
         style="stroke-linecap:butt;stroke-linejoin:round">
        <g
           id="g937"
           style="stroke-linecap:butt;stroke-linejoin:round">
          <path
             inkscape:connector-curvature="0"
             style="stroke:#000000;stroke-width:0.80000001;stroke-linecap:butt;stroke-linejoin:round"
             id="use939"
             d="m 180,985.43909 -3.5,0" />
        </g>
      </g>
      <g
         id="text_30"
         style="stroke-linecap:butt;stroke-linejoin:round">
        <!-- 0.94 -->
        <g
           transform="matrix(0.1,0,0,-0.1,150.73437,989.23829)"
           id="g942"
           style="stroke-linecap:butt;stroke-linejoin:round">
          <path
             style="stroke-linecap:butt;stroke-linejoin:round"
             inkscape:connector-curvature="0"
             id="use944"
             d="m 31.78125,66.40625 q -7.609375,0 -11.453125,-7.5 Q 16.5,51.421875 16.5,36.375 q 0,-14.984375 3.828125,-22.484375 3.84375,-7.5 11.453125,-7.5 7.671875,0 11.5,7.5 3.84375,7.5 3.84375,22.484375 0,15.046875 -3.84375,22.53125 -3.828125,7.5 -11.5,7.5 z m 0,7.8125 q 12.265625,0 18.734375,-9.703125 6.46875,-9.6875 6.46875,-28.140625 0,-18.40625 -6.46875,-28.109375 -6.46875,-9.6875 -18.734375,-9.6875 -12.25,0 -18.71875,9.6875 Q 6.59375,17.96875 6.59375,36.375 q 0,18.453125 6.46875,28.140625 6.46875,9.703125 18.71875,9.703125 z" />
          <path
             style="stroke-linecap:butt;stroke-linejoin:round"
             inkscape:connector-curvature="0"
             id="use946"
             d="m 74.310547,12.40625 10.3125,0 0,-12.40625 -10.3125,0 z" />
          <path
             style="stroke-linecap:butt;stroke-linejoin:round"
             inkscape:connector-curvature="0"
             id="use948"
             d="m 106.39453,1.515625 0,8.984375 q 3.71875,-1.765625 7.51563,-2.6875 3.8125,-0.921875 7.48437,-0.921875 9.76563,0 14.90625,6.5625 5.15625,6.5625 5.89063,19.953125 -2.82813,-4.203125 -7.1875,-6.453125 -4.34375,-2.25 -9.60938,-2.25 -10.9375,0 -17.3125,6.609375 -6.375,6.625 -6.375,18.109375 0,11.21875 6.64063,18 6.64062,6.796875 17.67187,6.796875 12.65625,0 19.3125,-9.703125 6.67188,-9.6875 6.67188,-28.140625 0,-17.234375 -8.1875,-27.515625 -8.17188,-10.28125 -21.98438,-10.28125 -3.71875,0 -7.53125,0.734375 -3.79687,0.734375 -7.90625,2.203125 z m 19.625,30.90625 q 6.64063,0 10.51563,4.53125 3.89062,4.546875 3.89062,12.46875 0,7.859375 -3.89062,12.421875 -3.875,4.5625 -10.51563,4.5625 -6.64062,0 -10.51562,-4.5625 -3.875,-4.5625 -3.875,-12.421875 0,-7.921875 3.875,-12.46875 3.875,-4.53125 10.51562,-4.53125 z" />
          <path
             style="stroke-linecap:butt;stroke-linejoin:round"
             inkscape:connector-curvature="0"
             id="use950"
             d="m 196.83008,64.3125 -24.90625,-38.921875 24.90625,0 z m -2.59375,8.59375 12.40625,0 0,-47.515625 10.40625,0 0,-8.203125 -10.40625,0 0,-17.1875 -9.8125,0 0,17.1875 -32.90625,0 0,9.515625 z" />
        </g>
      </g>
    </g>
    <g
       id="ytick_14"
       style="stroke-linecap:butt;stroke-linejoin:round">
      <g
         id="line2d_48"
         style="stroke-linecap:butt;stroke-linejoin:round">
        <g
           id="g954"
           style="stroke-linecap:butt;stroke-linejoin:round">
          <path
             inkscape:connector-curvature="0"
             style="stroke:#000000;stroke-width:0.80000001;stroke-linecap:butt;stroke-linejoin:round"
             id="use956"
             d="m 180,932.36664 -3.5,0" />
        </g>
      </g>
      <g
         id="text_31"
         style="stroke-linecap:butt;stroke-linejoin:round">
        <!-- 0.96 -->
        <g
           transform="matrix(0.1,0,0,-0.1,150.73437,936.16583)"
           id="g959"
           style="stroke-linecap:butt;stroke-linejoin:round">
          <path
             style="stroke-linecap:butt;stroke-linejoin:round"
             inkscape:connector-curvature="0"
             id="use961"
             d="m 31.78125,66.40625 q -7.609375,0 -11.453125,-7.5 Q 16.5,51.421875 16.5,36.375 q 0,-14.984375 3.828125,-22.484375 3.84375,-7.5 11.453125,-7.5 7.671875,0 11.5,7.5 3.84375,7.5 3.84375,22.484375 0,15.046875 -3.84375,22.53125 -3.828125,7.5 -11.5,7.5 z m 0,7.8125 q 12.265625,0 18.734375,-9.703125 6.46875,-9.6875 6.46875,-28.140625 0,-18.40625 -6.46875,-28.109375 -6.46875,-9.6875 -18.734375,-9.6875 -12.25,0 -18.71875,9.6875 Q 6.59375,17.96875 6.59375,36.375 q 0,18.453125 6.46875,28.140625 6.46875,9.703125 18.71875,9.703125 z" />
          <path
             style="stroke-linecap:butt;stroke-linejoin:round"
             inkscape:connector-curvature="0"
             id="use963"
             d="m 74.310547,12.40625 10.3125,0 0,-12.40625 -10.3125,0 z" />
          <path
             style="stroke-linecap:butt;stroke-linejoin:round"
             inkscape:connector-curvature="0"
             id="use965"
             d="m 106.39453,1.515625 0,8.984375 q 3.71875,-1.765625 7.51563,-2.6875 3.8125,-0.921875 7.48437,-0.921875 9.76563,0 14.90625,6.5625 5.15625,6.5625 5.89063,19.953125 -2.82813,-4.203125 -7.1875,-6.453125 -4.34375,-2.25 -9.60938,-2.25 -10.9375,0 -17.3125,6.609375 -6.375,6.625 -6.375,18.109375 0,11.21875 6.64063,18 6.64062,6.796875 17.67187,6.796875 12.65625,0 19.3125,-9.703125 6.67188,-9.6875 6.67188,-28.140625 0,-17.234375 -8.1875,-27.515625 -8.17188,-10.28125 -21.98438,-10.28125 -3.71875,0 -7.53125,0.734375 -3.79687,0.734375 -7.90625,2.203125 z m 19.625,30.90625 q 6.64063,0 10.51563,4.53125 3.89062,4.546875 3.89062,12.46875 0,7.859375 -3.89062,12.421875 -3.875,4.5625 -10.51563,4.5625 -6.64062,0 -10.51562,-4.5625 -3.875,-4.5625 -3.875,-12.421875 0,-7.921875 3.875,-12.46875 3.875,-4.53125 10.51562,-4.53125 z" />
          <path
             style="stroke-linecap:butt;stroke-linejoin:round"
             inkscape:connector-curvature="0"
             id="use967"
             d="m 192.04883,40.375 q -6.64063,0 -10.53125,-4.546875 -3.875,-4.53125 -3.875,-12.4375 0,-7.859375 3.875,-12.4375 3.89062,-4.5625 10.53125,-4.5625 6.64062,0 10.51562,4.5625 3.875,4.578125 3.875,12.4375 0,7.90625 -3.875,12.4375 -3.875,4.546875 -10.51562,4.546875 z m 19.57812,30.921875 0,-8.984375 q -3.71875,1.75 -7.5,2.671875 -3.78125,0.9375 -7.5,0.9375 -9.76562,0 -14.92187,-6.59375 -5.14063,-6.59375 -5.875,-19.921875 2.875,4.25 7.21875,6.515625 4.35937,2.265625 9.57812,2.265625 10.98438,0 17.35938,-6.671875 6.375,-6.65625 6.375,-18.125 0,-11.234375 -6.64063,-18.03125 -6.64062,-6.78125 -17.67187,-6.78125 -12.65625,0 -19.34375,9.6875 -6.6875,9.703125 -6.6875,28.109375 0,17.28125 8.20312,27.5625 8.20313,10.28125 22.01563,10.28125 3.71875,0 7.5,-0.734375 3.78125,-0.734375 7.89062,-2.1875 z" />
        </g>
      </g>
    </g>
    <g
       id="ytick_15"
       style="stroke-linecap:butt;stroke-linejoin:round">
      <g
         id="line2d_49"
         style="stroke-linecap:butt;stroke-linejoin:round">
        <g
           id="g971"
           style="stroke-linecap:butt;stroke-linejoin:round">
          <path
             inkscape:connector-curvature="0"
             style="stroke:#000000;stroke-width:0.80000001;stroke-linecap:butt;stroke-linejoin:round"
             id="use973"
             d="m 180,879.29419 -3.5,0" />
        </g>
      </g>
      <g
         id="text_32"
         style="stroke-linecap:butt;stroke-linejoin:round">
        <!-- 0.98 -->
        <g
           transform="matrix(0.1,0,0,-0.1,150.73437,883.09338)"
           id="g976"
           style="stroke-linecap:butt;stroke-linejoin:round">
          <path
             style="stroke-linecap:butt;stroke-linejoin:round"
             inkscape:connector-curvature="0"
             id="use978"
             d="m 31.78125,66.40625 q -7.609375,0 -11.453125,-7.5 Q 16.5,51.421875 16.5,36.375 q 0,-14.984375 3.828125,-22.484375 3.84375,-7.5 11.453125,-7.5 7.671875,0 11.5,7.5 3.84375,7.5 3.84375,22.484375 0,15.046875 -3.84375,22.53125 -3.828125,7.5 -11.5,7.5 z m 0,7.8125 q 12.265625,0 18.734375,-9.703125 6.46875,-9.6875 6.46875,-28.140625 0,-18.40625 -6.46875,-28.109375 -6.46875,-9.6875 -18.734375,-9.6875 -12.25,0 -18.71875,9.6875 Q 6.59375,17.96875 6.59375,36.375 q 0,18.453125 6.46875,28.140625 6.46875,9.703125 18.71875,9.703125 z" />
          <path
             style="stroke-linecap:butt;stroke-linejoin:round"
             inkscape:connector-curvature="0"
             id="use980"
             d="m 74.310547,12.40625 10.3125,0 0,-12.40625 -10.3125,0 z" />
          <path
             style="stroke-linecap:butt;stroke-linejoin:round"
             inkscape:connector-curvature="0"
             id="use982"
             d="m 106.39453,1.515625 0,8.984375 q 3.71875,-1.765625 7.51563,-2.6875 3.8125,-0.921875 7.48437,-0.921875 9.76563,0 14.90625,6.5625 5.15625,6.5625 5.89063,19.953125 -2.82813,-4.203125 -7.1875,-6.453125 -4.34375,-2.25 -9.60938,-2.25 -10.9375,0 -17.3125,6.609375 -6.375,6.625 -6.375,18.109375 0,11.21875 6.64063,18 6.64062,6.796875 17.67187,6.796875 12.65625,0 19.3125,-9.703125 6.67188,-9.6875 6.67188,-28.140625 0,-17.234375 -8.1875,-27.515625 -8.17188,-10.28125 -21.98438,-10.28125 -3.71875,0 -7.53125,0.734375 -3.79687,0.734375 -7.90625,2.203125 z m 19.625,30.90625 q 6.64063,0 10.51563,4.53125 3.89062,4.546875 3.89062,12.46875 0,7.859375 -3.89062,12.421875 -3.875,4.5625 -10.51563,4.5625 -6.64062,0 -10.51562,-4.5625 -3.875,-4.5625 -3.875,-12.421875 0,-7.921875 3.875,-12.46875 3.875,-4.53125 10.51562,-4.53125 z" />
          <path
             style="stroke-linecap:butt;stroke-linejoin:round"
             inkscape:connector-curvature="0"
             id="use984"
             d="m 190.81445,34.625 q -7.03125,0 -11.0625,-3.765625 -4.01562,-3.765625 -4.01562,-10.34375 0,-6.59375 4.01562,-10.359375 4.03125,-3.765625 11.0625,-3.765625 7.03125,0 11.07813,3.78125 4.0625,3.796875 4.0625,10.34375 0,6.578125 -4.03125,10.34375 Q 197.9082,34.625 190.81445,34.625 z m -9.85937,4.1875 q -6.34375,1.5625 -9.89063,5.90625 -3.53125,4.359375 -3.53125,10.609375 0,8.734375 6.21875,13.8125 6.23438,5.078125 17.0625,5.078125 10.89063,0 17.09375,-5.078125 6.20313,-5.078125 6.20313,-13.8125 0,-6.25 -3.54688,-10.609375 -3.53125,-4.34375 -9.82812,-5.90625 7.125,-1.65625 11.09375,-6.5 3.98437,-4.828125 3.98437,-11.796875 0,-10.609375 -6.46875,-16.28125 -6.46875,-5.65625 -18.53125,-5.65625 -12.04687,0 -18.53125,5.65625 -6.46875,5.671875 -6.46875,16.28125 0,6.96875 4,11.796875 4.01563,4.84375 11.14063,6.5 z m -3.60938,15.578125 q 0,-5.65625 3.53125,-8.828125 3.54688,-3.171875 9.9375,-3.171875 6.35938,0 9.9375,3.171875 3.59375,3.171875 3.59375,8.828125 0,5.671875 -3.59375,8.84375 -3.57812,3.171875 -9.9375,3.171875 -6.39062,0 -9.9375,-3.171875 -3.53125,-3.171875 -3.53125,-8.84375 z" />
        </g>
      </g>
    </g>
    <g
       id="ytick_16"
       style="stroke-linecap:butt;stroke-linejoin:round">
      <g
         id="line2d_50"
         style="stroke-linecap:butt;stroke-linejoin:round">
        <g
           id="g988"
           style="stroke-linecap:butt;stroke-linejoin:round">
          <path
             inkscape:connector-curvature="0"
             style="stroke:#000000;stroke-width:0.80000001;stroke-linecap:butt;stroke-linejoin:round"
             id="use990"
             d="m 180,826.22168 -3.5,0" />
        </g>
      </g>
      <g
         id="text_33"
         style="stroke-linecap:butt;stroke-linejoin:round">
        <!-- 1.00 -->
        <g
           transform="matrix(0.1,0,0,-0.1,150.73437,830.02093)"
           id="g993"
           style="stroke-linecap:butt;stroke-linejoin:round">
          <path
             style="stroke-linecap:butt;stroke-linejoin:round"
             inkscape:connector-curvature="0"
             id="use995"
             d="m 12.40625,8.296875 16.109375,0 0,55.625 -17.53125,-3.515625 0,8.984375 17.4375,3.515625 9.859375,0 0,-64.609375 16.109375,0 0,-8.296875 -41.984375,0 z" />
          <path
             style="stroke-linecap:butt;stroke-linejoin:round"
             inkscape:connector-curvature="0"
             id="use997"
             d="m 74.310547,12.40625 10.3125,0 0,-12.40625 -10.3125,0 z" />
          <path
             style="stroke-linecap:butt;stroke-linejoin:round"
             inkscape:connector-curvature="0"
             id="use999"
             d="m 127.19141,66.40625 q -7.60938,0 -11.45313,-7.5 -3.82812,-7.484375 -3.82812,-22.53125 0,-14.984375 3.82812,-22.484375 3.84375,-7.5 11.45313,-7.5 7.67187,0 11.5,7.5 3.84375,7.5 3.84375,22.484375 0,15.046875 -3.84375,22.53125 -3.82813,7.5 -11.5,7.5 z m 0,7.8125 q 12.26562,0 18.73437,-9.703125 6.46875,-9.6875 6.46875,-28.140625 0,-18.40625 -6.46875,-28.109375 -6.46875,-9.6875 -18.73437,-9.6875 -12.25,0 -18.71875,9.6875 -6.46875,9.703125 -6.46875,28.109375 0,18.453125 6.46875,28.140625 6.46875,9.703125 18.71875,9.703125 z" />
          <path
             style="stroke-linecap:butt;stroke-linejoin:round"
             inkscape:connector-curvature="0"
             id="use1001"
             d="m 190.81445,66.40625 q -7.60937,0 -11.45312,-7.5 -3.82813,-7.484375 -3.82813,-22.53125 0,-14.984375 3.82813,-22.484375 3.84375,-7.5 11.45312,-7.5 7.67188,0 11.5,7.5 3.84375,7.5 3.84375,22.484375 0,15.046875 -3.84375,22.53125 -3.82812,7.5 -11.5,7.5 z m 0,7.8125 q 12.26563,0 18.73438,-9.703125 6.46875,-9.6875 6.46875,-28.140625 0,-18.40625 -6.46875,-28.109375 -6.46875,-9.6875 -18.73438,-9.6875 -12.25,0 -18.71875,9.6875 -6.46875,9.703125 -6.46875,28.109375 0,18.453125 6.46875,28.140625 6.46875,9.703125 18.71875,9.703125 z" />
        </g>
      </g>
    </g>
    <g
       id="ytick_17"
       style="stroke-linecap:butt;stroke-linejoin:round">
      <g
         id="line2d_51"
         style="stroke-linecap:butt;stroke-linejoin:round">
        <g
           id="g1005"
           style="stroke-linecap:butt;stroke-linejoin:round">
          <path
             inkscape:connector-curvature="0"
             style="stroke:#000000;stroke-width:0.80000001;stroke-linecap:butt;stroke-linejoin:round"
             id="use1007"
             d="m 180,773.14923 -3.5,0" />
        </g>
      </g>
      <g
         id="text_34"
         style="stroke-linecap:butt;stroke-linejoin:round">
        <!-- 1.02 -->
        <g
           transform="matrix(0.1,0,0,-0.1,150.73437,776.94847)"
           id="g1010"
           style="stroke-linecap:butt;stroke-linejoin:round">
          <path
             style="stroke-linecap:butt;stroke-linejoin:round"
             inkscape:connector-curvature="0"
             id="use1012"
             d="m 12.40625,8.296875 16.109375,0 0,55.625 -17.53125,-3.515625 0,8.984375 17.4375,3.515625 9.859375,0 0,-64.609375 16.109375,0 0,-8.296875 -41.984375,0 z" />
          <path
             style="stroke-linecap:butt;stroke-linejoin:round"
             inkscape:connector-curvature="0"
             id="use1014"
             d="m 74.310547,12.40625 10.3125,0 0,-12.40625 -10.3125,0 z" />
          <path
             style="stroke-linecap:butt;stroke-linejoin:round"
             inkscape:connector-curvature="0"
             id="use1016"
             d="m 127.19141,66.40625 q -7.60938,0 -11.45313,-7.5 -3.82812,-7.484375 -3.82812,-22.53125 0,-14.984375 3.82812,-22.484375 3.84375,-7.5 11.45313,-7.5 7.67187,0 11.5,7.5 3.84375,7.5 3.84375,22.484375 0,15.046875 -3.84375,22.53125 -3.82813,7.5 -11.5,7.5 z m 0,7.8125 q 12.26562,0 18.73437,-9.703125 6.46875,-9.6875 6.46875,-28.140625 0,-18.40625 -6.46875,-28.109375 -6.46875,-9.6875 -18.73437,-9.6875 -12.25,0 -18.71875,9.6875 -6.46875,9.703125 -6.46875,28.109375 0,18.453125 6.46875,28.140625 6.46875,9.703125 18.71875,9.703125 z" />
          <path
             style="stroke-linecap:butt;stroke-linejoin:round"
             inkscape:connector-curvature="0"
             id="use1018"
             d="m 178.2207,8.296875 34.42188,0 0,-8.296875 -46.28125,0 0,8.296875 q 5.60937,5.8125 15.29687,15.59375 9.70313,9.796875 12.1875,12.640625 4.73438,5.3125 6.60938,9 1.89062,3.6875 1.89062,7.25 0,5.8125 -4.07812,9.46875 -4.07813,3.671875 -10.625,3.671875 -4.64063,0 -9.79688,-1.609375 -5.14062,-1.609375 -11,-4.890625 l 0,9.96875 q 5.95313,2.390625 11.125,3.609375 5.1875,1.21875 9.48438,1.21875 11.32812,0 18.0625,-5.671875 6.73437,-5.65625 6.73437,-15.125 0,-4.5 -1.6875,-8.53125 -1.67187,-4.015625 -6.125,-9.484375 -1.21875,-1.421875 -7.76562,-8.1875 -6.53125,-6.765625 -18.45313,-18.921875 z" />
        </g>
      </g>
    </g>
  </g>
  <g
     id="line2d_52"
     style="stroke-linecap:butt;stroke-linejoin:round">
    <path
       clip-path="url(#p7a421142a7)"
       d="m 281.09235,766.72728 6.17453,86.52772 16.96015,-72.59109 12.50428,26.18043 27.42316,14.66505 43.23181,11.83772 6.14409,-14.48628 175.57926,68.37841 2.74435,-59.80619 0.1329,-2.42182 0.61685,15.80001 0.80757,-5.20542 1.06325,-18.84699"
       style="fill:none;stroke:#888888;stroke-width:1.5;stroke-linecap:square;stroke-linejoin:round"
       id="path1021"
       inkscape:connector-curvature="0" />
  </g>
  <g
     id="line2d_54"
     style="stroke-linecap:butt;stroke-linejoin:round">
    <path
       clip-path="url(#p7a421142a7)"
       d="m 281.09235,766.72728 6.17453,86.52772 22.64059,48.83206 14.88947,-89.24557 49.13038,0.6124 179.13829,52.3609 1.98851,-14.47816 2.04735,-20.3382 0.52655,-9.55441"
       style="fill:none;stroke:#888888;stroke-width:1.5;stroke-linecap:square;stroke-linejoin:round"
       id="path1027"
       inkscape:connector-curvature="0" />
  </g>
  <g
     id="line2d_56"
     style="stroke-linecap:butt;stroke-linejoin:round">
    <path
       clip-path="url(#p7a421142a7)"
       d="m 285.32402,977.01477 5.13157,-163.90903 3.85832,0.55609 5.68957,-2.10887 11.8854,-3.45245 15.0802,2.05378 48.13511,3.25933 165.96036,100.60458 1.96112,-12.8616 1.66284,-3.93434 1.76227,-2.20042 2.76767,-21.91618 2.59318,-21.54738 2.07373,-19.81001 0.63105,-11.10872"
       style="fill:none;stroke:#888888;stroke-width:1.5;stroke-linecap:square;stroke-linejoin:round"
       id="path1033"
       inkscape:connector-curvature="0" />
  </g>
  <g
     id="line2d_57"
     style="stroke-linecap:butt;stroke-linejoin:round"
     transform="matrix(0.44412026,0,0,1,100.05835,0)">
    <path
       clip-path="url(#p7a421142a7)"
       d="m 230.72727,826.22171 1014.54543,0"
       style="fill:none;stroke:#000000;stroke-width:0.80000001;stroke-linecap:butt;stroke-linejoin:round;stroke-dasharray:0.8, 1.32;stroke-dashoffset:0"
       id="path1036"
       inkscape:connector-curvature="0" />
  </g>
  <g
     id="line2d_58"
     style="stroke-linecap:butt;stroke-linejoin:round">
    <path
       clip-path="url(#p7a421142a7)"
       d="m 281.09235,766.72728 6.00915,31.71718 9.64326,5.16352 37.16381,-1.0748 10.32503,22.12404 7.33009,2.93689 14.32031,-13.21641 40.60008,11.06554 0.22118,1.55418 4.49849,-17.46853 162.46931,52.03809 1.37166,-2.60007 0.0203,-27.37227 0.31958,-2.67913 0.32972,-5.39827 0.002,-2.66369 2.59927,6.12534 0.0954,-1.51393"
       style="fill:none;stroke:#888888;stroke-width:1.5;stroke-linecap:square;stroke-linejoin:round"
       id="path1039"
       inkscape:connector-curvature="0" />
  </g>
  <g
     id="line2d_59"
     style="stroke-linecap:butt;stroke-linejoin:round"
     transform="matrix(0.44028487,0,0,1,100.74872,0)">
    <path
       clip-path="url(#p7a421142a7)"
       d="m 230.72727,826.22171 1014.54543,0"
       style="fill:none;stroke:#000000;stroke-width:0.80000001;stroke-linecap:butt;stroke-linejoin:round;stroke-dasharray:0.8, 1.32;stroke-dashoffset:0"
       id="path1042"
       inkscape:connector-curvature="0" />
  </g>
  <g
     id="patch_13"
     style="stroke-linecap:butt;stroke-linejoin:round">
    <path
       d="m 180,992.34783 0,-241.04348"
       style="fill:none;stroke:#000000;stroke-width:0.80000001;stroke-linecap:square;stroke-linejoin:miter"
       id="path1045"
       inkscape:connector-curvature="0" />
  </g>
  <g
     id="patch_14"
     style="stroke-linecap:butt;stroke-linejoin:round"
     transform="translate(-625.79286,0)">
    <path
       d="m 1296,992.34783 0,-241.04348"
       style="fill:none;stroke:#000000;stroke-width:0.80000001;stroke-linecap:square;stroke-linejoin:miter"
       id="path1048"
       inkscape:connector-curvature="0" />
  </g>
  <g
     id="patch_15"
     style="stroke-linecap:butt;stroke-linejoin:round"
     transform="matrix(0.43835287,0,0,1,101.08794,0)">
    <path
       d="m 180,992.34783 1116,0"
       style="fill:none;stroke:#000000;stroke-width:0.80000001;stroke-linecap:square;stroke-linejoin:miter"
       id="path1051"
       inkscape:connector-curvature="0" />
  </g>
  <g
     id="patch_16"
     style="stroke-linecap:butt;stroke-linejoin:round"
     transform="matrix(0.43949501,0,0,1,100.76562,-0.12528197)">
    <path
       d="m 180,751.30435 1116,0"
       style="fill:none;stroke:#000000;stroke-width:0.80000001;stroke-linecap:square;stroke-linejoin:miter"
       id="path1054"
       inkscape:connector-curvature="0" />
  </g>
  <defs
     id="defs1400">
    <clipPath
       id="p7bfae29657">
      <rect
         height="241.043478"
         width="1116"
         x="180"
         y="172.8"
         id="rect1403" />
    </clipPath>
    <clipPath
       id="pe76be548ff">
      <rect
         height="241.043478"
         width="1116"
         x="180"
         y="462.052174"
         id="rect1406" />
    </clipPath>
    <clipPath
       id="p7a421142a7">
      <rect
         height="241.043478"
         width="1116"
         x="180"
         y="751.304348"
         id="rect1409" />
    </clipPath>
    <clipPath
       id="p35784618fe">
      <rect
         height="241.043478"
         width="1116"
         x="180"
         y="1040.556522"
         id="rect1412" />
    </clipPath>
  </defs>
</svg>
